<svg xmlns="http://www.w3.org/2000/svg" width="501.761" height="532.16" viewBox="0 0 501.76056 532.15996"><defs><clipPath id="a"><path d="M109.379 585.255H485.7v-399.12H109.379z"/></clipPath></defs><g clip-path="url(#a)" opacity=".1" transform="matrix(1.33333 0 0 -1.33333 -145.839 780.34)" fill="#fff" stroke-width="0"><path d="M334.178 401.281c.448-.064-.402-.477-.635-.447.196-.617 1.186-.225 1.25.746 10.518 3.68 26.078 12.61 41.612-4.94 1.185.243 1.09.7 1.222 1.886-8.9 10.545-21.603 14.663-29.59 11.554-.71.71-.84-.104-1.474.43-2.531-1.729-6.491-1.907-8.78-3.28-4.847-.905-10.47-2.493-13.291-1.008-1.671 2.223-6.912 2.69-6.024-1.56.935-1.018 1.784-1.457 2.718-2.717-.87.494-.87-.206-1.598-.14-1.185.728-2.493 2.158-4.062 2.746-3.371 5.435-11.17 3.184-9.686-3.082 4.848-4.475 10.199-4.989 13.655-6.22 1.205-1.048 1.533-.105 2.186-.114 4.08-.924 3.456 3.737 12.497 6.146"/><path d="M334.178 401.281c.448-.064-.402-.477-.635-.447.196-.617 1.186-.225 1.25.746 10.518 3.68 26.078 12.61 41.612-4.94 1.185.243 1.09.7 1.222 1.886-8.9 10.545-21.603 14.663-29.59 11.554-.71.71-.84-.104-1.474.43-2.531-1.729-6.491-1.907-8.78-3.28-4.847-.905-10.47-2.493-13.291-1.008-1.671 2.223-6.912 2.69-6.024-1.56.935-1.018 1.784-1.457 2.718-2.717-.87.494-.87-.206-1.598-.14-1.185.728-2.493 2.158-4.062 2.746-3.371 5.435-11.17 3.184-9.686-3.082 4.848-4.475 10.199-4.989 13.655-6.22 1.205-1.048 1.533-.105 2.186-.114 4.08-.924 3.456 3.737 12.497 6.146zm31.148-17.409c1.42 1.644 1.094 4.175 4.773 5.155 1.383-.588 3.494-1.886 4.41-2.96-1.56-1.168-3.896-1.626-3.906-3.848 1.028-2.69 2.858-1.728 4.381-4.306-.327-2.036-2.336-3.52-1.345-6.389 1.298-.159 1.56.72 2.307 1.14 2.438.065 3.913-1.532 5.818-2.68 6.81-12.899 1.99-32.312-7.62-45.043-3.96-4.839-8.416-9.583-13.599-15.12-1-1.309-3.578-2.579-3.307-4.074 1.635-.168 2.867 1.934 3.885 3.092 2.961 2.69 5.913 6.23 8.49 8.602 20.315 15.467 29.936 65.61 5.857 74.81-.42.718-.906.895-1.308 1.624-4.016 1.195-9.565 3.586-13.73.326-.429-.11-.859-.326-1.252-.139l-2.792-2.39c-1.037-2.682 2.868-3.093 5.081-2.962 1.802-1.056 1.99-4.875 3.857-4.838"/><path d="M365.326 383.872c1.42 1.644 1.094 4.175 4.773 5.155 1.383-.588 3.494-1.886 4.41-2.96-1.56-1.168-3.896-1.626-3.906-3.848 1.028-2.69 2.858-1.728 4.381-4.306-.327-2.036-2.336-3.52-1.345-6.389 1.298-.159 1.56.72 2.307 1.14 2.438.065 3.913-1.532 5.818-2.68 6.81-12.899 1.99-32.312-7.62-45.043-3.96-4.839-8.416-9.583-13.599-15.12-1-1.309-3.578-2.579-3.307-4.074 1.635-.168 2.867 1.934 3.885 3.092 2.961 2.69 5.913 6.23 8.49 8.602 20.315 15.467 29.936 65.61 5.857 74.81-.42.718-.906.895-1.308 1.624-4.016 1.195-9.565 3.586-13.73.326-.429-.11-.859-.326-1.252-.139l-2.792-2.39c-1.037-2.682 2.868-3.093 5.081-2.962 1.802-1.056 1.99-4.875 3.857-4.838z"/><path d="M367.045 347.651c3.232-4.898-1.728-12.314 1.309-17.219-2.561-7.76-10.78-13.916-15.926-18.857-2.671-2.606-5.034-5.006-7.967-7.024-3.278-2.167-6.24-3.763-8.947-6.22 1.289-1.886 4.099.355 5.407 1.307 6.902 4.007 13.702 9.145 19.23 13.936 2.617 1.878 5.08 3.4 7.52 5.567 2.839 3.185 6.08 8.555 8.603 14.02 4.603 10.058 4.64 21.383.634 27.753-1.344.681-1.783 2.447-3.978 1.962.009-.786-.365-.972-.926-.87-.232-1.38-.14-3.137-.83-4.37.43-4.372 3.707-7.837 1.437-13.53-.765 3.041-3.166 7.188-5.566 3.545"/><path d="M367.045 347.651c3.232-4.898-1.728-12.314 1.309-17.219-2.561-7.76-10.78-13.916-15.926-18.857-2.671-2.606-5.034-5.006-7.967-7.024-3.278-2.167-6.24-3.763-8.947-6.22 1.289-1.886 4.099.355 5.407 1.307 6.902 4.007 13.702 9.145 19.23 13.936 2.617 1.878 5.08 3.4 7.52 5.567 2.839 3.185 6.08 8.555 8.603 14.02 4.603 10.058 4.64 21.383.634 27.753-1.344.681-1.783 2.447-3.978 1.962.009-.786-.365-.972-.926-.87-.232-1.38-.14-3.137-.83-4.37.43-4.372 3.707-7.837 1.437-13.53-.765 3.041-3.166 7.188-5.566 3.545zm-21.772 67.846c-.158 1.71-.906 3.278-1.914 4.848-4.522 3.446-9.62.868-11.545-2.158l-.187-2.148c-3.288-3.297-7.612-3.456-10.983-2.783-.738.01-1.43.756-2.26 1-1.719.466-3.466.783-5.016.887-.972.214-1.849.943-2.96 1.25-1.197.328-2.53.197-3.867.72-.589.196-1.13 1.065-1.756 1.186-.98.224-3.587.02-4.465 1.72-1-.488-1.55.867-2.615.316-2.98 1.961-5.82 4.857-8.472 8.098-1.42-.56-1.699-.953-2.68-2.195l4.735-4.717c3.381-1.42 5.613-3.194 8.294-4.679.355-.196.672.29.933.224.328-.093.645-.916.842-.98 2.102-.71 4.885-1.672 5.968-1.85.29-.019.505.477.896.355.532-.093 1.532-.784 2.288-1.056a71.191 71.191 0 0 0 3.671-1.437l.505.317c.598-.299 1.578-.962 2.662-.868 4.043-2.699 6.864-1.616 12.375-1.99l1.644.86c.812.083.915-.496 1.373-.142 3.69 1.383 7.341 1.15 10.872 2.99.363 1.092 1.008 2.456 1.662 2.232"/><path d="M345.273 415.497c-.158 1.71-.906 3.278-1.914 4.848-4.522 3.446-9.62.868-11.545-2.158l-.187-2.148c-3.288-3.297-7.612-3.456-10.983-2.783-.738.01-1.43.756-2.26 1-1.719.466-3.466.783-5.016.887-.972.214-1.849.943-2.96 1.25-1.197.328-2.53.197-3.867.72-.589.196-1.13 1.065-1.756 1.186-.98.224-3.587.02-4.465 1.72-1-.488-1.55.867-2.615.316-2.98 1.961-5.82 4.857-8.472 8.098-1.42-.56-1.699-.953-2.68-2.195l4.735-4.717c3.381-1.42 5.613-3.194 8.294-4.679.355-.196.672.29.933.224.328-.093.645-.916.842-.98 2.102-.71 4.885-1.672 5.968-1.85.29-.019.505.477.896.355.532-.093 1.532-.784 2.288-1.056a71.191 71.191 0 0 0 3.671-1.437l.505.317c.598-.299 1.578-.962 2.662-.868 4.043-2.699 6.864-1.616 12.375-1.99l1.644.86c.812.083.915-.496 1.373-.142 3.69 1.383 7.341 1.15 10.872 2.99.363 1.092 1.008 2.456 1.662 2.232zM192.732 391.83c4.465-2.158 8.92-8.846 6.931-16.523.298-.729 1-.467 1.101-1.634 2.822.14 3.354.438 5.38 2.008 3.438 16.307-7.668 23.965-14.663 29.393l-2.363.168c-.71-.308-.402 1.102-.804 1.298-1.756.131-2.67.327-3.39 1.532-4.567.15-8.023 1.634-10.797 5.006-.27.317-.906 1.13-1.083 1.484-.113.215.056 1.281-.009 1.383-.888 1.271-2.26 1.588-3.018 3.176-.924 1.942-1.056 5.455-1.952 7.416l-1.27.224c.075-8.63 2.86-11.759 4.306-18.857 1.981-1.617 2.886-5.119 5.333-5.754 1.093-2.326 2.438-3.577 3.614-5.388 1.196-2.102 3.428-5.4 4.25-8.744.45-1.96.178-4.398.72-6.48.13-.664 1.503-1.327 1.241-2.71.702-.719 1.626-.803 1.925-2.578 6.557-1.326 7.22 9.537 4.548 15.58"/><path d="M192.732 391.83c4.465-2.158 8.92-8.846 6.931-16.523.298-.729 1-.467 1.101-1.634 2.822.14 3.354.438 5.38 2.008 3.438 16.307-7.668 23.965-14.663 29.393l-2.363.168c-.71-.308-.402 1.102-.804 1.298-1.756.131-2.67.327-3.39 1.532-4.567.15-8.023 1.634-10.797 5.006-.27.317-.906 1.13-1.083 1.484-.113.215.056 1.281-.009 1.383-.888 1.271-2.26 1.588-3.018 3.176-.924 1.942-1.056 5.455-1.952 7.416l-1.27.224c.075-8.63 2.86-11.759 4.306-18.857 1.981-1.617 2.886-5.119 5.333-5.754 1.093-2.326 2.438-3.577 3.614-5.388 1.196-2.102 3.428-5.4 4.25-8.744.45-1.96.178-4.398.72-6.48.13-.664 1.503-1.327 1.241-2.71.702-.719 1.626-.803 1.925-2.578 6.557-1.326 7.22 9.537 4.548 15.58zm220.078.961c3.111 5.764.57 15.318-.326 23.107-4.606 14.3-13.543 29.926-28.983 41.003-23.984 16.455-51.36 17.203-72.636 8.754-2.56-2.279-5.969-4.495-10.265-6.596-2.27-2.046-3.223-4.185-6.855-7.024-1.55-4.044-5.623-7.818-5.035-11.609.177-.514-1.354-1.439-1.307-1.971 1.578-2.681 1.756-3.325 1.821-6.379 3.11-4.176 6.276-8.098 10.592-9.929 1.353-.654 2.437-.243 4.333-.99 1.551-.533 2.261-.897 3.681-1.261 4.193-.775 9.572-.56 14.896 1.719.57.878.822 2.017 1.98 2.596.803 3.662-2.222 6.295-6.407 5.754-3.221-1.495-4.024-3.895-8.162-3.484-.402-.028-.71.308-1.476.373-.588.038-1.606-.42-1.84-.355-.73.178-.877 1.028-1.924 1.635-1.42.813-3.324.747-4.465 1.737-1.821 1.551-2.063 4.39-3.96 6.426.13.495-.616.981.496 1.494-1.616 1.644-1.233 6.464.54 9.919 1.057 2.606 4.718 4.689 4.886 6.492 7.36 6.781 20.81 12.345 33.698 13.186 21.67 1.004 43.619-6.975 58.366-23.367 8.91-10.517 15.224-22.92 16.97-33.96 1.403-5.614-.017-11.619 1.383-17.27"/><path d="M412.81 392.791c3.111 5.764.57 15.318-.326 23.107-4.606 14.3-13.543 29.926-28.983 41.003-23.984 16.455-51.36 17.203-72.636 8.754-2.56-2.279-5.969-4.495-10.265-6.596-2.27-2.046-3.223-4.185-6.855-7.024-1.55-4.044-5.623-7.818-5.035-11.609.177-.514-1.354-1.439-1.307-1.971 1.578-2.681 1.756-3.325 1.821-6.379 3.11-4.176 6.276-8.098 10.592-9.929 1.353-.654 2.437-.243 4.333-.99 1.551-.533 2.261-.897 3.681-1.261 4.193-.775 9.572-.56 14.896 1.719.57.878.822 2.017 1.98 2.596.803 3.662-2.222 6.295-6.407 5.754-3.221-1.495-4.024-3.895-8.162-3.484-.402-.028-.71.308-1.476.373-.588.038-1.606-.42-1.84-.355-.73.178-.877 1.028-1.924 1.635-1.42.813-3.324.747-4.465 1.737-1.821 1.551-2.063 4.39-3.96 6.426.13.495-.616.981.496 1.494-1.616 1.644-1.233 6.464.54 9.919 1.057 2.606 4.718 4.689 4.886 6.492 7.36 6.781 20.81 12.345 33.698 13.186 21.67 1.004 43.619-6.975 58.366-23.367 8.91-10.517 15.224-22.92 16.97-33.96 1.403-5.614-.017-11.619 1.383-17.27z"/><path d="M365.962 311.323c.41-.178.485-.495.046-.915 4.035 3.26 8.434 6.622 11.05 10.591.794 1.158 1.662 1.3 2.344 1.98 1.606 3.26 3.8 4.418 5.305 7.566 8.2 11.255 14.094 30.042 9.984 48.06-3.968 15.596-13.776 28.121-19.23 39.17-1.794 2.85-4.353 6.996-6.54 10.826-2.437 1.746-7.667 6.043-10.843 5.492-1.298.046-2.017-.393-3.557-.477-1.953-2.512.858-4.37 1.288-6.902-7.64-1.588-4.735 13.954-18.054 11.47-1.942-.55-6.155-3.764-3.708-6.36.262-.3 1.186-.87 1.569-1.243 6.64-5.81 19.203-10.872 31.224-19.11 4.959-2.167 7.473-7.303 11.123-10.022 2.598-2.746 6.09-7.779 8.584-10.955.626-1.373.673-2.877 1.233-4.269 3.51-7.874 6.669-17.549 5.156-29.019-.748-4.875-1.672-10.218-3.484-14.23-1.58-3.52-3.177-4.8-4.081-8.004-1.906-2.81-4.185-5.277-6.557-8.135-.944-1.177-1.402-3.119-2.523-4.212-1.27-1.299-2.83-1.97-3.978-3.288-1.85-2.428-4.922-5.409-6.351-8.014"/><path d="M365.962 311.323c.41-.178.485-.495.046-.915 4.035 3.26 8.434 6.622 11.05 10.591.794 1.158 1.662 1.3 2.344 1.98 1.606 3.26 3.8 4.418 5.305 7.566 8.2 11.255 14.094 30.042 9.984 48.06-3.968 15.596-13.776 28.121-19.23 39.17-1.794 2.85-4.353 6.996-6.54 10.826-2.437 1.746-7.667 6.043-10.843 5.492-1.298.046-2.017-.393-3.557-.477-1.953-2.512.858-4.37 1.288-6.902-7.64-1.588-4.735 13.954-18.054 11.47-1.942-.55-6.155-3.764-3.708-6.36.262-.3 1.186-.87 1.569-1.243 6.64-5.81 19.203-10.872 31.224-19.11 4.959-2.167 7.473-7.303 11.123-10.022 2.598-2.746 6.09-7.779 8.584-10.955.626-1.373.673-2.877 1.233-4.269 3.51-7.874 6.669-17.549 5.156-29.019-.748-4.875-1.672-10.218-3.484-14.23-1.58-3.52-3.177-4.8-4.081-8.004-1.906-2.81-4.185-5.277-6.557-8.135-.944-1.177-1.402-3.119-2.523-4.212-1.27-1.299-2.83-1.97-3.978-3.288-1.85-2.428-4.922-5.409-6.351-8.014zM188.24 471.025c.505.804.962-.346.972 1.056 5.36-1.99 12.935 1.265 15.411 11.264-3.54 3.404-8.472-3.638-13.02-1.639-.42-.944-.7-.369-1.084-.986-1.512 1.275-4.025 1.252-3.427 3.531-.28.457-.729-.636-1.047-.504-3.017 6.897-5.36 13.93-3.129 24.232l-1.419.985c-3.914-4.805-2.55-7.672-2.868-11.1-.187-2.339-.878-5.618.028-7.122.206-.345-.309-2.662-.215-3.325.374-2.503 1.598-3.736.794-7.14 1.58.205.028-2.26 1.3-2.298-.197-1.214.4-1.756-.067-3.19 1.028-.765 1.625-1.896 1.307-3.787 1.532-1.96 2.467-4.394 2.747-7.332 2.232-1.623 3.858-2.65 4.417-6.2.486-.27.813.738 1.242.925 2.01-3.456 6.277-3.642 9.78-5.342.448-.477.663.644 1 .925 4.314-.318 9.62 1.568 11.955 10.29.551 1.896.215 3.535 1.261 6.038-.954 1.452-1.654 2.99-3.11 3.2-3.027.434-6.65-5.297-9.388-4.778-.503-1.854-2.606-.103-3.754-1.929-3.222 1.004-8.294.14-9.686 4.226"/><path d="M188.24 471.025c.505.804.962-.346.972 1.056 5.36-1.99 12.935 1.265 15.411 11.264-3.54 3.404-8.472-3.638-13.02-1.639-.42-.944-.7-.369-1.084-.986-1.512 1.275-4.025 1.252-3.427 3.531-.28.457-.729-.636-1.047-.504-3.017 6.897-5.36 13.93-3.129 24.232l-1.419.985c-3.914-4.805-2.55-7.672-2.868-11.1-.187-2.339-.878-5.618.028-7.122.206-.345-.309-2.662-.215-3.325.374-2.503 1.598-3.736.794-7.14 1.58.205.028-2.26 1.3-2.298-.197-1.214.4-1.756-.067-3.19 1.028-.765 1.625-1.896 1.307-3.787 1.532-1.96 2.467-4.394 2.747-7.332 2.232-1.623 3.858-2.65 4.417-6.2.486-.27.813.738 1.242.925 2.01-3.456 6.277-3.642 9.78-5.342.448-.477.663.644 1 .925 4.314-.318 9.62 1.568 11.955 10.29.551 1.896.215 3.535 1.261 6.038-.954 1.452-1.654 2.99-3.11 3.2-3.027.434-6.65-5.297-9.388-4.778-.503-1.854-2.606-.103-3.754-1.929-3.222 1.004-8.294.14-9.686 4.226zm82.23-189.244c-.616-1.858 2.484-1.729 4.109-2.186 18.727-4.997 34.316-7.033 48.652-8.21 8.043-1.335 17.68-.55 23.5-3.586 1.345.924.962-.43 2.222.374 4.792-2.39 9.957-3.335 12.012-9.9-.42-5.12-7.191-11.368-12.89-16.262-8.247-2.139-14.317-5.837-14.392-8.882 2.214-.449 3.67-1.466 5.735-2.065 16.634 2.298 25.153 12.17 31.513 19.428-.738 2.316 2.829 5.38.934 7.443-.897.384 1.475 1.318.719 1.72-1.662.335-1.597 4.855-5.015 4.754-.43.392 1.522 1.14.765 1.484-1.886-1.13-1.858.57-2.55 1.214-.028.794-1.485-.579-1.68-.027-1.457 2.84-5.69 1.298-7.23 3.886-2.877-.87-4.977-.066-6.603 1.222-5.053-.438-8.818.524-13.805.944-1.663.122-3.54-.42-5.26-.308-8.301.598-16.41 1.177-24.188 2.335-3.065-.477-4.98.616-8.276.59-8.37 1.52-19.595 3.874-28.272 6.032"/><path d="M270.47 281.781c-.616-1.858 2.484-1.729 4.109-2.186 18.727-4.997 34.316-7.033 48.652-8.21 8.043-1.335 17.68-.55 23.5-3.586 1.345.924.962-.43 2.222.374 4.792-2.39 9.957-3.335 12.012-9.9-.42-5.12-7.191-11.368-12.89-16.262-8.247-2.139-14.317-5.837-14.392-8.882 2.214-.449 3.67-1.466 5.735-2.065 16.634 2.298 25.153 12.17 31.513 19.428-.738 2.316 2.829 5.38.934 7.443-.897.384 1.475 1.318.719 1.72-1.662.335-1.597 4.855-5.015 4.754-.43.392 1.522 1.14.765 1.484-1.886-1.13-1.858.57-2.55 1.214-.028.794-1.485-.579-1.68-.027-1.457 2.84-5.69 1.298-7.23 3.886-2.877-.87-4.977-.066-6.603 1.222-5.053-.438-8.818.524-13.805.944-1.663.122-3.54-.42-5.26-.308-8.301.598-16.41 1.177-24.188 2.335-3.065-.477-4.98.616-8.276.59-8.37 1.52-19.595 3.874-28.272 6.032z"/><path d="M257.234 285.676c-.233-.943-.924-.73-.729-1.56 6.8-3.595 13.375-6.061 20.325-8.238 4.062-2.466 9.247-3.428 13.59-5.38 2.148-1.363 4.557-3.035 7.08-3.324.905-.02.15-.775.354-1.093 6.734-2.064 5.66-7.258 7.584-11.741 3.41-.766 5.884-2.102 8.415-3.446 6.847.868 7.398 4.184 11.087 6.108 2.27-1.438.075-4.4 1.784-6.472 1.83-2.121 8.948-1.42 14.487 1.579.943 1.129.671 2.335 1.811 3.436.215 4.175-3.559 4.147-6.145 6.444-2.69.692-6.043 1.383-7.987 2.887-8.228 1.158-16.343 3.475-25.572 5.436-.477.065-.336.42-.402.673-12.179 1.587-21.62 6.63-32.307 8.742-4.072 2.726-8.069 2.97-13.375 5.949"/><path d="M257.234 285.676c-.233-.943-.924-.73-.729-1.56 6.8-3.595 13.375-6.061 20.325-8.238 4.062-2.466 9.247-3.428 13.59-5.38 2.148-1.363 4.557-3.035 7.08-3.324.905-.02.15-.775.354-1.093 6.734-2.064 5.66-7.258 7.584-11.741 3.41-.766 5.884-2.102 8.415-3.446 6.847.868 7.398 4.184 11.087 6.108 2.27-1.438.075-4.4 1.784-6.472 1.83-2.121 8.948-1.42 14.487 1.579.943 1.129.671 2.335 1.811 3.436.215 4.175-3.559 4.147-6.145 6.444-2.69.692-6.043 1.383-7.987 2.887-8.228 1.158-16.343 3.475-25.572 5.436-.477.065-.336.42-.402.673-12.179 1.587-21.62 6.63-32.307 8.742-4.072 2.726-8.069 2.97-13.375 5.949zm-26.515 12.805c3.549-3.354 7.052-6.118 13.197-9.537.13.28.262.552.673.337.682-.495-.785-.187-.112-.953 3.688-2.755 5.697-4.362 10.32-6.968 2.223-2.568 5.464-3.903 8.06-5.902 4.045-3.27 6.725-6.464 11.667-8.996 1.326-3.184 6.612-5.07 6.743-8.274 1.877-.178.747-1.252 2.503-1.476 2.269-5.408-1.205-9.003-10.312-8.929l-.467-2.102c2.513-2.092 7.249-2.634 11.675-2.642 2.803 1.167 4.203 1.867 6.315 3.305 1.363 3.653.485 7.006-1.691 10.807-4.12 4.436-9.527 7.51-13.655 12.133-2.157.896-2.914 2.092-5.212 2.932-6.407 5.296-16.214 12.142-25.162 17.42-1.271 1.644-3.941 3.231-6.295 4.698-2.634 1.952-6.697 5.1-8.247 4.147"/><path d="M230.719 298.481c3.549-3.354 7.052-6.118 13.197-9.537.13.28.262.552.673.337.682-.495-.785-.187-.112-.953 3.688-2.755 5.697-4.362 10.32-6.968 2.223-2.568 5.464-3.903 8.06-5.902 4.045-3.27 6.725-6.464 11.667-8.996 1.326-3.184 6.612-5.07 6.743-8.274 1.877-.178.747-1.252 2.503-1.476 2.269-5.408-1.205-9.003-10.312-8.929l-.467-2.102c2.513-2.092 7.249-2.634 11.675-2.642 2.803 1.167 4.203 1.867 6.315 3.305 1.363 3.653.485 7.006-1.691 10.807-4.12 4.436-9.527 7.51-13.655 12.133-2.157.896-2.914 2.092-5.212 2.932-6.407 5.296-16.214 12.142-25.162 17.42-1.271 1.644-3.941 3.231-6.295 4.698-2.634 1.952-6.697 5.1-8.247 4.147zm156.416 25.284c3.289.149 6.949 6.77 10.377 9.274 3.4 6.36 7.902 9.06 10.574 15.986l.85-.113c2.652 5.222 6.883 10.873 10.283 11.694.262.056.56.943.484.953 1.366-.121 3.504-3.988 5.12-5.68.625-.643 1.54.515 1.644-1.642 5.043-1.691 7.014 5.585 10.945 7.49-.027 1.11.122 1.737.505 1.653-1.7 8.733-4.792 15.99-9.293 12.786.27 4.232 3.119 3.643 5.445 4.017 3.41-5.184 6.379-7.911 10.994-5.865 1.222 2.998 2.362 6.21 3.314 9.835-.774 4.856.235 5.632-.961 9.554-3.465 2.204-7.36 4.838-10.143 6.883-.42.104-.261-.57-.066-1.29-9.685 1.702-9.06-12.626-16.242-17.987-1.514-8.79-5.781-11.255-7.705-19.165l-1.084.018c-1.083-4.67-4.137-6.986-5.94-12.45-.16-.58-.588-.28-.925-.308-4.371-9.738-11.207-17.134-18.176-25.643"/><path d="M387.135 323.765c3.289.149 6.949 6.77 10.377 9.274 3.4 6.36 7.902 9.06 10.574 15.986l.85-.113c2.652 5.222 6.883 10.873 10.283 11.694.262.056.56.943.484.953 1.366-.121 3.504-3.988 5.12-5.68.625-.643 1.54.515 1.644-1.642 5.043-1.691 7.014 5.585 10.945 7.49-.027 1.11.122 1.737.505 1.653-1.7 8.733-4.792 15.99-9.293 12.786.27 4.232 3.119 3.643 5.445 4.017 3.41-5.184 6.379-7.911 10.994-5.865 1.222 2.998 2.362 6.21 3.314 9.835-.774 4.856.235 5.632-.961 9.554-3.465 2.204-7.36 4.838-10.143 6.883-.42.104-.261-.57-.066-1.29-9.685 1.702-9.06-12.626-16.242-17.987-1.514-8.79-5.781-11.255-7.705-19.165l-1.084.018c-1.083-4.67-4.137-6.986-5.94-12.45-.16-.58-.588-.28-.925-.308-4.371-9.738-11.207-17.134-18.176-25.643zm12.385 39.848c1.682 3.334.598 10.396 2.84 13.254.158 3.866.952 5.314.447 8.826l1.046.28c-.187.467-.494.234-.756.234.766 8.013.616 15.476-2.242 24.498-5.706 18.7-31.214 35.801-45.55 31.43l-.449-1.206c10.134-6.36 18.11-3.595 28.74-13.962-2.336-.047-4.858.41-7.445 1.195l.644-3.082c3.475-3.456 5.39-4.969 7.865-7.63.896.55 2.213-.907 3.464-1.916 5.296.495 10.705-11.067 11.947-17.12.86-1.867.673-6.146.72-9.03.69-6.895-1.645-16.14-2.038-23.837.188-.954.198-1.97.766-1.934"/><path d="M399.52 363.613c1.682 3.334.598 10.396 2.84 13.254.158 3.866.952 5.314.447 8.826l1.046.28c-.187.467-.494.234-.756.234.766 8.013.616 15.476-2.242 24.498-5.706 18.7-31.214 35.801-45.55 31.43l-.449-1.206c10.134-6.36 18.11-3.595 28.74-13.962-2.336-.047-4.858.41-7.445 1.195l.644-3.082c3.475-3.456 5.39-4.969 7.865-7.63.896.55 2.213-.907 3.464-1.916 5.296.495 10.705-11.067 11.947-17.12.86-1.867.673-6.146.72-9.03.69-6.895-1.645-16.14-2.038-23.837.188-.954.198-1.97.766-1.934zM150.777 464.048c-1.093-7.39-.868-14.133-2.157-23.287-.037-4.128.327-7.724-.327-13.832.29-9.172 2.28-19.792 3.446-31.186.57.14.075-1.952.784-1.513 1.393-12.198 6.697-27.74 10.733-42.843 3.156-12.866 5.071-22.486 4.1-30.36.934-5.874 6.043-15.598 11.17-18.596 3.092.3 2.83 3.26 1.756 7.295 3.755-8.378 7.183-16.428 7.286-22.005 2.493-7.556 12.085-13.44 15.224-11.217.308.214-.336 1.466.72.802-1.766 6.68-6.876 14.917-12.442 24.406-2.96 9.163-10.946 19.866-14.607 30.345-10.256 21.47-17.28 38.663-20.83 59.175-1.578 3.68-2.044 7.984-2.39 13.533-4.007 19.427-3.614 40.601-.373 61.954-.692.808-1.326.09-1.915-2.166.205 10.091 5.296 24.21 8.35 35.398-2.662-2.036-3.746-7.187-4.94-11.259-1.524-4.82-3.363-9.419-4.68-14.305-1.065-4.735-1.317-10.007-3.643-13.32-.187-.72.364-.608.635-.794-2.074-12.703-4.558-21.398-9.079-30.477-3.82-7.659-7.658-13.374-5.912-28.84.645-.945 1.074 2.884 1.084-.038 1.065 1.27 1.98 2.931 3.39 3.166.513 3.894 2.027 4.847 2.971 7.416-.365-10.414-2.083-17.317-.103-29.366.98-3.306 2.11-6.165 3.222-10.712 2.615-2.327 3.736-9.827 6.538-12.002.401-2.83 1.307-2.243 1.784-4.494l1.681.412c-1.14 6.081-1.037 15.233-2.699 21.25 1.335 1.511 2.465 4.061 3.707 5.985-.027.804-.205 1.933.113 2.046.028 1.606-1.083.121-.962 1.98-1.177-1.373-1.756.224-2.317-1.13-8.134 1.943-7.444 20.837-4.745 39.265 1.31 12.768 2.326 22.864 4.821 34.4-.272 1.101-.328 2.446.606 4.914"/><path d="M150.777 464.048c-1.093-7.39-.868-14.133-2.157-23.287-.037-4.128.327-7.724-.327-13.832.29-9.172 2.28-19.792 3.446-31.186.57.14.075-1.952.784-1.513 1.393-12.198 6.697-27.74 10.733-42.843 3.156-12.866 5.071-22.486 4.1-30.36.934-5.874 6.043-15.598 11.17-18.596 3.092.3 2.83 3.26 1.756 7.295 3.755-8.378 7.183-16.428 7.286-22.005 2.493-7.556 12.085-13.44 15.224-11.217.308.214-.336 1.466.72.802-1.766 6.68-6.876 14.917-12.442 24.406-2.96 9.163-10.946 19.866-14.607 30.345-10.256 21.47-17.28 38.663-20.83 59.175-1.578 3.68-2.044 7.984-2.39 13.533-4.007 19.427-3.614 40.601-.373 61.954-.692.808-1.326.09-1.915-2.166.205 10.091 5.296 24.21 8.35 35.398-2.662-2.036-3.746-7.187-4.94-11.259-1.524-4.82-3.363-9.419-4.68-14.305-1.065-4.735-1.317-10.007-3.643-13.32-.187-.72.364-.608.635-.794-2.074-12.703-4.558-21.398-9.079-30.477-3.82-7.659-7.658-13.374-5.912-28.84.645-.945 1.074 2.884 1.084-.038 1.065 1.27 1.98 2.931 3.39 3.166.513 3.894 2.027 4.847 2.971 7.416-.365-10.414-2.083-17.317-.103-29.366.98-3.306 2.11-6.165 3.222-10.712 2.615-2.327 3.736-9.827 6.538-12.002.401-2.83 1.307-2.243 1.784-4.494l1.681.412c-1.14 6.081-1.037 15.233-2.699 21.25 1.335 1.511 2.465 4.061 3.707 5.985-.027.804-.205 1.933.113 2.046.028 1.606-1.083.121-.962 1.98-1.177-1.373-1.756.224-2.317-1.13-8.134 1.943-7.444 20.837-4.745 39.265 1.31 12.768 2.326 22.864 4.821 34.4-.272 1.101-.328 2.446.606 4.914zm269.161-79.905c.953.028 2.008.71 2.297 2.036.047.215-.457 1.214-.44 1.466.14 1.383 1.298 2.615 1.412 3.54.037.243-.497 1.28-.45 1.495.188.906 1.028.934 1.196 1.998.56 3.512-.606 9.229 1.393 10.826-1.3 2.27.672 1.065-.812 3.259l.784.355c-1.812 5.913.038 9.9-1.485 14.776.56.149 1.026.383-.104 2.008.774 1.644 1.308 4.129.383 6.716 1.317-.327.495 1.457.476 1.83-.149 4.166 3.867 1.196 6.772.757 4.278-.896 6.733 1.765 10.04 4.11-.859 1.68-1.345 4.38-.195 4.987-7.883 9.985-18.354 17.289-20.259 12.422-4.138 5.277-3.176 7.619-.384 9.506 2.14-.677 4.465-1.676 5.895-1.2 5.622-2.403 14.13-12.761 18.38-12.733-4.334 6.874-10.432 10.657-16.53 17.73-.132 2.507 1.521 4.824-3.307 8.905-6.698 3.055-9.639.607-15.084 1.859-1.579-1.891-3.233-4.787-4.456-6.094.336-1.107 1.634-2.597.336-3.05 2.475-4.488 3.26-8.313 3.363-11.803 4.24-6.828 4.567-12.843 8.051-20.941l-.673-.541c6.996-17.643 5.567-33.148 4.203-49.408-1.196-.188-.83-2.261-1.233-3.373z"/><path d="M419.938 384.143c.953.028 2.008.71 2.297 2.036.047.215-.457 1.214-.44 1.466.14 1.383 1.298 2.615 1.412 3.54.037.243-.497 1.28-.45 1.495.188.906 1.028.934 1.196 1.998.56 3.512-.606 9.229 1.393 10.826-1.3 2.27.672 1.065-.812 3.259l.784.355c-1.812 5.913.038 9.9-1.485 14.776.56.149 1.026.383-.104 2.008.774 1.644 1.308 4.129.383 6.716 1.317-.327.495 1.457.476 1.83-.149 4.166 3.867 1.196 6.772.757 4.278-.896 6.733 1.765 10.04 4.11-.859 1.68-1.345 4.38-.195 4.987-7.883 9.985-18.354 17.289-20.259 12.422-4.138 5.277-3.176 7.619-.384 9.506 2.14-.677 4.465-1.676 5.895-1.2 5.622-2.403 14.13-12.761 18.38-12.733-4.334 6.874-10.432 10.657-16.53 17.73-.132 2.507 1.521 4.824-3.307 8.905-6.698 3.055-9.639.607-15.084 1.859-1.579-1.891-3.233-4.787-4.456-6.094.336-1.107 1.634-2.597.336-3.05 2.475-4.488 3.26-8.313 3.363-11.803 4.24-6.828 4.567-12.843 8.051-20.941l-.673-.541c6.996-17.643 5.567-33.148 4.203-49.408-1.196-.188-.83-2.261-1.233-3.373zM295.305 473.43c.896-1.082-3.596-2.348-5.034-3.912-3.876-4.367-3.41-9.693 6.724-5.511 3.129.986 3.736 2.284 7.697 3.596 6.099 6.21 14.719 11.59 29.486 12.543 9.05-.27 18.97-1.723 24.854-4.142 1.27-.495 1.7-1.018 2.68-1.522 15.589-4.89 21.445-13.303 31.196-21.83.906-.635.859.373 2.157-.953.392.579-1.72 2.036-.392 2.289-9.835 11.415-21.25 20.4-38.294 26.219-1.205 1.28-3.231 1.48-4.53 2.48-18.39 6.244-51.725 3.52-68.051-9.788-7.332-5.55-11.273-8.87-15.58-15.363-.877-1.204-.214-1.512-.765-2.895-.672-1.886-3.82-5.51-4.278-7.584-1.438-6.033.364-12.702 6.79-10.731 8.612 5.482 12.638 13.552 13.655 17.717-3.642 4.718-1.634 12.5 11.685 19.388"/><path d="M295.305 473.43c.896-1.082-3.596-2.348-5.034-3.912-3.876-4.367-3.41-9.693 6.724-5.511 3.129.986 3.736 2.284 7.697 3.596 6.099 6.21 14.719 11.59 29.486 12.543 9.05-.27 18.97-1.723 24.854-4.142 1.27-.495 1.7-1.018 2.68-1.522 15.589-4.89 21.445-13.303 31.196-21.83.906-.635.859.373 2.157-.953.392.579-1.72 2.036-.392 2.289-9.835 11.415-21.25 20.4-38.294 26.219-1.205 1.28-3.231 1.48-4.53 2.48-18.39 6.244-51.725 3.52-68.051-9.788-7.332-5.55-11.273-8.87-15.58-15.363-.877-1.204-.214-1.512-.765-2.895-.672-1.886-3.82-5.51-4.278-7.584-1.438-6.033.364-12.702 6.79-10.731 8.612 5.482 12.638 13.552 13.655 17.717-3.642 4.718-1.634 12.5 11.685 19.388z"/><path d="M411.484 443.526c2.877.738-1.494 7.107-4.137 10.48-.308.476-.066.877-.365 1.457-.346.634-1.81 1.877-2.119 2.372-.813 1.317-.822 2.316-1.822 3.782-2.485 3.711-6.36 8.063-10.218 11.313-1.84 1.761-3.596 3.125-6.089 5.4-1.504 1.363-1.355 2.143-4.746 4.04-.037 1.138-4.464 3.025-3.408 3.977-5.754 1.854-9.546 5.287-15 7.67 1.55 1.866-4.38 3.725-2.934 5.612-2.278.486-3.903 2.844-5.883 3.778-8.705 2.718-24.938 2.64-31.177 4.894-1.159-.103-2.297-.21-2.456.033-3.25-.276-5.736-.733-7.277-1.34 2.793-1.7 4.334-3.835 9.145-4.782-18.233-1.747-29.59-5.012-45.599-13.184-.83-1.672-5.986-4.717-2.615-4.838.832.733 1.495 1.08 2.064.878 13.273 9.723 37.257 13.744 54.2 12.007 6.735-.883 14.618-1.154 17.616-3.298 5.025.631 10.722-3.666 16.783-5.538 10.882-4.72 22.67-13.394 28.217-20.02 4.875-4.045 7.677-8.778 9.517-12.355 5.184-4.866 4.68-6.827 7.005-11.096.392-.308.784-.597 1.298-1.242"/><path d="M411.484 443.526c2.877.738-1.494 7.107-4.137 10.48-.308.476-.066.877-.365 1.457-.346.634-1.81 1.877-2.119 2.372-.813 1.317-.822 2.316-1.822 3.782-2.485 3.711-6.36 8.063-10.218 11.313-1.84 1.761-3.596 3.125-6.089 5.4-1.504 1.363-1.355 2.143-4.746 4.04-.037 1.138-4.464 3.025-3.408 3.977-5.754 1.854-9.546 5.287-15 7.67 1.55 1.866-4.38 3.725-2.934 5.612-2.278.486-3.903 2.844-5.883 3.778-8.705 2.718-24.938 2.64-31.177 4.894-1.159-.103-2.297-.21-2.456.033-3.25-.276-5.736-.733-7.277-1.34 2.793-1.7 4.334-3.835 9.145-4.782-18.233-1.747-29.59-5.012-45.599-13.184-.83-1.672-5.986-4.717-2.615-4.838.832.733 1.495 1.08 2.064.878 13.273 9.723 37.257 13.744 54.2 12.007 6.735-.883 14.618-1.154 17.616-3.298 5.025.631 10.722-3.666 16.783-5.538 10.882-4.72 22.67-13.394 28.217-20.02 4.875-4.045 7.677-8.778 9.517-12.355 5.184-4.866 4.68-6.827 7.005-11.096.392-.308.784-.597 1.298-1.242zm36.221-112.916c-.598-1.783-.065-1.849-.672-3.614 1.503-1.486 3.361 1.223 3.764-.953.896 1.364 3.428 1.513 3.344-.84 2.867-.71 5.314-2.083 5.193-7.538 4.39.448-2.719-19.979-1.11-23.667.306-.579-.142-3.503.167-4.745.252-.999 1.512.308 1.027-2.868l3.287-1.606c2.662 4.754 2.896 8.64 2.896 11.488 2.727 8.742 3.268 13.926 3.801 20.697-1.12-.495-1.093 2.064-2.083.57-.29.59-.084 1.971.243 3.568.907 1.01 1.784 2.783 2.784 2.223 4.66 4.604 5.09 20.82 9.367 22.43.131 2.4.664 2.69.934 4.287.03 1.896-.513 2.232-.41 4.39-1.383.205-3.177-.71-3.55 2.335-1.485-1.438-2.82-3.456-4.52-3.988-2.662-7.898-6.015-19.647-10.312-23.317-4.343.438-8.302 2.793-11.478 1.167-.41-.13-.28.57-.122 1.298-.813-.84-1.56-2.307-2.55-1.317"/><path d="M447.705 330.61c-.598-1.783-.065-1.849-.672-3.614 1.503-1.486 3.361 1.223 3.764-.953.896 1.364 3.428 1.513 3.344-.84 2.867-.71 5.314-2.083 5.193-7.538 4.39.448-2.719-19.979-1.11-23.667.306-.579-.142-3.503.167-4.745.252-.999 1.512.308 1.027-2.868l3.287-1.606c2.662 4.754 2.896 8.64 2.896 11.488 2.727 8.742 3.268 13.926 3.801 20.697-1.12-.495-1.093 2.064-2.083.57-.29.59-.084 1.971.243 3.568.907 1.01 1.784 2.783 2.784 2.223 4.66 4.604 5.09 20.82 9.367 22.43.131 2.4.664 2.69.934 4.287.03 1.896-.513 2.232-.41 4.39-1.383.205-3.177-.71-3.55 2.335-1.485-1.438-2.82-3.456-4.52-3.988-2.662-7.898-6.015-19.647-10.312-23.317-4.343.438-8.302 2.793-11.478 1.167-.41-.13-.28.57-.122 1.298-.813-.84-1.56-2.307-2.55-1.317zm-310.172-26.18c-2.597 4.036-4.549 2.7-6.874 4.399-.317-3.12-2.083-4.613-1.942-7.471 1.223-2.718 1.56-4.306 2.848-6.706 3.652-13.412 16.691-30.281 27.45-39.714 16.261-14.804 33.643-21.827 46.701-26.058.018.915-1.794 1.065-1.7 2.082-6.109 2.345-10.723 5.202-16.7 8.425-2.643 1.476-5.24 1.896-7.92 3.567-4.689 2.99-14.917 9.939-19.904 15.992-1.822 2.082-6.08 6.9-7.612 9.834-2.486 4.755-.056 6.426-1.793 11.535-2.448 6.594-7.286 14.216-12.554 24.116"/><path d="M137.533 304.43c-2.597 4.036-4.549 2.7-6.874 4.399-.317-3.12-2.083-4.613-1.942-7.471 1.223-2.718 1.56-4.306 2.848-6.706 3.652-13.412 16.691-30.281 27.45-39.714 16.261-14.804 33.643-21.827 46.701-26.058.018.915-1.794 1.065-1.7 2.082-6.109 2.345-10.723 5.202-16.7 8.425-2.643 1.476-5.24 1.896-7.92 3.567-4.689 2.99-14.917 9.939-19.904 15.992-1.822 2.082-6.08 6.9-7.612 9.834-2.486 4.755-.056 6.426-1.793 11.535-2.448 6.594-7.286 14.216-12.554 24.116zm102.18 192.449c.047.06.089-.021 0 0"/><path d="M239.713 496.879c.047.06.089-.021 0 0z"/><path d="M454.328 363.903c.476.467.86.476 1.298 0-.047-1.97-.646-2.14-1.187-2.484.103 1.185-.177 1.381-.11 2.484M253.722 300.34c-.84-.215-2.148-.168-3.09.924 1.157.962 1.381-.963 3.09-.924m-142.136 43.15c.43.317.71-1.793 1.121-1.765.905 8.691 4.688 18.217 9.555 15.901-.44 2.737 1.71 2.672 2.11.411.794 3.661 2.887-1.289 4.24.803 1.952-4.51 5.838-4.212 7.11-10.47-2.308 1.691-5.764.468-6.185-2.849 1.158-4.908 4.362-6.15 6.716-12.35.467-.842.943.484 1.41-1.393 3.11.495 6.258-2.316 9.863-6.137 3.988-4.072 12.46-16.167 17.456-23.153 4.437-6.575 8.5-13.57 12.88-19.456 8.64-11.86 19.278-22.267 25.956-29.99-3.325 1.868-7.91 4.465-9.993 5.006-3.363.214.924-4.166 1.223-5.874 5.417-5.857 12.525-9.22 17.998-11.377.738.261-.402.916.075 1.223 2.026-1.382 1.877-2.316 3.334-3.577 15.45-10.059 26.647-17.307 36.221-24.209 2.167-.533 2.774-1.158 4.68-1.7.793-.28.354-.653.382-.99 4.324-2.204 9.004-4.586 13.412-6.332 2.821-1.243 6.454-2.597 9.107-3.82 1.924-.897 2.167-2.037 4.24-2.802l3.213-.42c7.66-2.12 13.18-4.979 23.304-6.156 4.661-.55 9.331-1.962 14.635-1.868 2.157-.018 4.175.467 5.847.448 1.335-.008 1.532-.532 3.082-.597 2.372-.159 7.332 1.344 6.884-.467 7.285 2.035 13.515 3.52 18.203 4.138 15.953 5.24 27.292 11.161 39.36 17.932.57.738 2.484 1.877 2.044 2.317 8.173 5.267 18.774 16.214 24.247 21.491l1.513 2.624c5.287 5.697 11.535 14.253 14.738 21.511.822 1.718.916 3.324 1.701 4.912.672 1.336 1.858 2.587 2.288 3.577.626 1.672.382 2.681.934 4.418.72 2.261 2.456 5.39 2.812 7.266 1.017 4.652 1.465 9.65 1.71 15.252.391 6.006.606 12.788-1.599 15.551-.149 6.053-3.156 8.052-4.37 13.198-1.71.766-2.654 2.643-3.493 4.652-1.373.56-2.215-.019-2.093 2.316-1.28.766-2.409.02-2.317 2.307-10.778 4.838-20.697 1.046-29.495-2.214 12.123 6.838 26.152 12.712 36.09 6.174 5.006.72 9.162 5.604 14.215 9.083 2.148 3.642 3.793 7.117 6.1 9.275 1.101 5.68 3.847 6.902 4.482 12.18.047.345-.13 1.391-.11 1.447.97 3.41.98 6.78 1.381 13.384.14 3.904 1.083 11.731-.598 17.345-1.12 4.987-3.054 10.003-4.605 15.252-.728 2.457-.906 4.277-1.755 6.631-3.186 6.407-7.379 11.255-11.087 18.176-1.009 2.008-.767 2.745-.906 3.866-1.7 3.531-2.98 3.98-5.006 6.67-2.457.195.364-3.504-1.466-3.755 3.1-4.979-.366-5.035 1.466-9.434-1.588-1.11-2.812-1.046.438-7.145l1.326.72c16.841-10.013 20.97-58.217 13.002-64.026 2.307 16.111-.178 34.763-10.61 58.048-.336-.85-1.25 1.447-1.756 1.522 3.558-10.02 3.297-19.848 6.968-34.09.504-1.859-1.494.503-.617-2.196-1.298 3.755-3.092 4.007-4.549 8.528l-1.456-.392c8.667-23.986.718-46-7.566-50.08-3.045-4.293-7.472-1.823-10.713-4.695-.215.168.01 1.065-.28 1.12-1.046-1.054-3.839-1.932-4.073-.952-3.79-1.084-7.032-3.26-10.983-3.988-12.646-9.2-26.423-21.659-40.844-29.972-.654.261-.214.99-.99 1.196-.943-.944.373-.925.598-1.365-29.906-22.882-68.957-30.68-112.239-13.477-3.37 1.58-5.595 2.924-7.734 3.96 5.988-1.429 12.451-4.128 18.774-5.884 7.92-2.232 15.075-3.24 21.771-4.36 6.538-.684 13.366-1.047 18.364-.852 2.082.178 4.22-.12 6.527-.093 11.517 1.167 25.882 6.8 37.65 12.123 5.735 3.905 11.34 7.071 16.7 12.31 5.651 4.017 9.891 9.462 14.123 13.44 2.353 4.531 5.314 6.043 7.386 10.676.561.074.683 1.924 1.43 1.28 7.463 14.528 14.46 25.242 17.97 40.353 1.093 1 2.335 3.073 1.635 6.053 1.831.195-.14 4.912 1.877 4.95-1.084 6.632 1.887 9.9.411 16.28l.785.345c-1.692 5.128-.336 7.743-1.952 12.907-.402 8.715-6.343 17.72-8.677 26.368-1.12 1.41-2.485 2.605-1.877 3.184-3.587 3.27-3.42 5.073-6.567 8.145-3.746 6.405-8.929 11.915-17.54 17.683-.645.392-.299.612-.28.887-11.433 8.696-35.642 17.667-54.705 18.737-12.133-.052-27.348-2.648-34.418-6.833-20.744-7.159-34.65-21.692-43.534-35.835.664-1.345-3.95-6.183-3.306-7.565-3.783-4.577-1.784-5.66-4.324-10.349.224-.449-.186-1.485.327-1.663-4.988-16.466-1.588-28.646 2.83-39.013 1.325-.084 1.867-1.635 2.27-3.437 1.56-.439 2.493-2.027 3.577-3.297 1.148.074 1.952-.467 2.446-1.56l1.934-.037c.7.205.448-1.28.943-1.42 4.83-.355 5.605-.159 10.993-.028.262.308.571.252 1.01 1.168 3.754-.42 6.425 2.736 10.274 2.746.98 1.811 2.558 2.297 4.342 2.418 5.305 5.072 12.768 9.761 14.786 18.625-.607 1.046-.27 2.316-.187 3.605-1.887 2.923-4.819 3.56-7.612 2.885-3.139-1.932-4.754-5.043-4.82-8.303-1.625-2.045-3.026-3.437-3.054-5.66-.709-.662-1.243-1.802-2.26-2.363l-1.13-.018c-.439-.345-.748-1.476-1.242-1.794-.495-.317-1.41-.075-2.214-.542-1.12-.569-2.018-2.1-2.53-2.427-.609-.299-1.393.242-1.944-.047-.065-.037-.374-1.009-.523-1.084-2.157-.915-5.697-.84-7.874-.98-4.118-.318-7.883 2.017-11.516 3.97-.41 2.438-2.793 1.998-2.53 5.183-3.316 2.7-4.11 9.807-4.662 17.214-.037 4.54-1.26 5.53 1.131 11.432-.374.121-.047.887-.467.971 2.69 9.443 6.725 19.035 12.721 28.18 1.213 1.54 4.67 4.314 3.716 4.92 3.195 3.18 10.004 8.984 12.77 11.45 18.062 13.762 45.905 21.23 68.49 15.15 7.05-.272 11.571-2.789 18.315-4.89 32.157-14.394 46.97-38.736 53.592-60.76.084-.504-.037-.887-.55-1.027 1.55-3.306 1.895-7.864 1.391-10.31 1.878-6.689 1.672-11.424.28-16.41-.756-8.557-1.205-14.245-4.548-21.11-.075-2.877-1.345-3.764-2.065-5.483-1.289-6.688-5.053-12.048-7.939-17.849-5.399-13.556-13.58-23.363-22.864-32.703-.429-.066-.859-.822-1.289-.495-1.96-3.24-4.745-4.559-7.687-7.557-.262-.308-.476 0-.709.113-11.199-9.76-25.266-15.57-39.2-18.465-4.558-1.093-9.05-1.784-13.618-1.97-15.54-1.384-38.798 3.006-57.749 10.151-8.219 3.325-17.923 7.706-26.628 12.628-1.662 2.017-2.25 1.204-4.073 3.596-7.696 4.1-15.802 12.17-21.76 18.39 5.088-3.539 12.196-8.583 18.09-10.208l1.018.802c.29.123.663-.802.942-.587.972 1.158 2.924 1.541 3.868 3.1.308.505.15 2.111.551 2.952.215.448.906.476 1.028.793.027.066-.42.794-.393.916.187.784 1.186 1.224.28 2.186-3.167.541-5.183-2.289-8.349-1.056.018.73-.114 1.607.672 2.073-.383 1.365-.41 2.448-1.644 3.69-4.81-.598-9.172 5.487-14.094 1.905-.495-.495.15-1.793-1.074-1.793-.888.523-2.279 2.288-3.736 2.41-22.967 23.494-35.37 59.986-37.575 98.037 2.783-9.489 7.36-17.839 12.814-24.303 1.99-.738 4.026-1.4 5.175-3.287.906-.13 3.81.252 5.267.224.29-.01.421-.934.73-.926 2.792.047 5.043-.298 7.19-.045.944-1.654 3.661-.944 3.802-3.568 1.784-.206 2.877-1.635 3.475-3.756 4.324-4.455 7.66-15.662 8.284-24.274.43-4.595-1.149-7.603-2.186-11.049-1.054-.4-1.373-1.504-1.802-2.52-5.417-5.419-7.902 11.524-14.215 7.06-.169-1.636-.645-2.896-1.42-3.783-.103-2.719 1.336-4.95 1.896-7.94 2.774-3.493 6.566-7.723 10.413-7.387 1.281.112 2.644 1.802 4.297.794.403.775 1.083 1.326 2.204 1.531 1.318 5.156 5.325 8.527 4.064 16.084 1.42 3.624-.898 8.378-.532 12.917-2.924 5.837-2.485 14.225-6.707 18.231l-.56 2.261c-2.53 1.784-3.409 5.323-5.679 7.444-1.223.028-2.672.448-2.39 1.522-1.346.215-2.813.243-3.233 1.691-6.05.897-13.375-1.4-17.727 5.482-.336.224-.458-.28-.56-.812.037 1.326-1.224.747-.944 2.438l-1.27.233c-.234.243-.355.654-.224 1.43-3.176 2.521-4.67 6.967-6.454 11.394-.682 1.756-1.364 3.708-1.298 6.304-2.242 1.467-.972 7.08-2.896 8.556 1.242 9.004-.084 16.104 2.345 25.201-.496 3.475 1.746 9.892 1.484 13.291 2.644 3.956 2.018 8.004 4.101 9.887.31.653-.233.663-.458.91 2.177 6.604 4.55 11.844 8.238 19.222 4.764 9.045 10.993 18.423 18.363 23.99 3.212-1.509-2.495-6.5-2.065-9.425-4.558-7.48-5.538-11.899-8.032-18.254.354-1.509.766-2.98-.532-5.464.943-2.078.587-4.909.252-7.7 2.316-5.096 4.082-11.316 10.582-9.635.13-.224-.42-.827-.187-.995 4.512 1.368 8.78 1.93 12.722.948l.774 1.06c7.837.154 13.067-7.08 5.744-17.853.72-1.55 1.392-1.135 1.215-2.195 2.008.523 4.39.458 6.82 5.268.811 1.658.707 3.77 1.988 5.305 3.41-1.854-.598-11.218.29-14.64.932-3.303 4.071-3.956 6.864-4.913.69 1.07 1.718 1.877 2.577 3.264-.373 4.936 3.046 11.69 4.306 16.867-1.363.748.28 2.84.271 4.213-.009 1.948-1.802 3.068-1.97 4.964-.034.404 0 .521.037.566-.047.011-.108.041-.243.177-1.243 1.214-2.213 4.33-4.745 5.701-.26.753-1.092-.797-1.419-.317l-2.802 2.695c-2.205-.495-3.129.808-4.8 1.065-6.922 1.032-16.057-2.587-23.557-4.792-1.195 1.616-3.147-.397-4.314 1.415 4.351 5.273 7.341 7.864 12.561 13.74-1.568 4.82-7.49.93-12.029-1.2-.225 1.186-.308 2.446.504 4.142 2.728 3.18 4.063 2.176 6.09 3.287 5.183 6.884-.41 11.423-5.707 5.912-.009 3.045 3.026 7.594 2.914 10.293 4.297 8.121 11.05 14.926 20.548 23.102-.476 1.018-.028 2.088-.523 2.588 5.894 4.273 11.021 5.497 14.552 5.716 8.23 4.128 12.04 1.597 17.512 1.377l.58-1.157c2.913.252 2.092-1.663 3.745-1.76.878-.347-1.4-.875-.523-1.225-.29-.775 2.428.58.29-.579-.057-.673 1.12.094 1.643.094.01-1.845 1.242-2.26.561-4.535-.356-1.19-.403-.34.027-1.186 1.056-2.083-5.146-5.52-6.136-8.98-.187-1.084 1.822 1.083 1.634 0 6.286 3.904 11.32 8.22 14.73 12.464-.467 1.246-1.298 3.124.028 3.694-1.074 1.993-1.457 3.792-2.56 6.173-3.129 2.718-7.05 4.67-11.478 6.417-2.055-.677-3.363-.523-3.867.504-7.173-1.41-13.85-.686-23.425-4.889-1.242.032-2.896-.454-5.043-1.625-4.212 1.167-8.276.686-11.816 1.742-.037.401.934.476.813.887-1.85-.393-3.054.224-5.669-1.322-1.168-.99-.757-1.924-1.85-2.503-.597-.546-.065-.728.057-1.04-2.447-3.882-2.905-6.563-6.679-11.279.514-3.363-8.752-10.452-11.572-15.43-5.763-6.487-11.198-13.468-14.71-20.342-.654-1.088-.812-.402-1.354-1.117-1.187-1.247-.207-1.092.018-1.424-9.274-16.892-12.88-33.092-17.242-50.324-1.317-15.94-3.148-33.435-.653-48.556-.43-5.08.961-6.847.458-12.245 1.643-5.51 2.343-12.403 3.25-19.493.336.14.382-.457.663-.485 2.232-18.662 10.451-33.717 18.213-52.056 6.538-14.926 17.54-28.488 25.301-41.404.59-.99 1.383-2.709 1.841-4.017.383-1.13-.187-.934.3-2.307.241-.757 1.13-1.41 1.353-1.989.43-1.317-.234-2.635.336-4.446.262-.813 1.345-1.887 1.541-2.606.094-.345-.71-.299-.588-.635.13-.336 1.102-1.448 1.373-2.158.29-.794.532-1.242 1.092-2.494 2.513-4.866 8.845-12.002 15.832-12.86 2.494.85 4.623 2.278 3.4 5.25-3.812 2.67-3.577 5.09-6.51 8.012 4.175-1.859 6.052-5.782 9.741-8.247 1.448.513.794 2.101 2.382 2.074 3.166-3.307-4.474-4.279 1.775-8.21-.187-2.065 3.362-5.073 2.867-7.2-.028-.16-1.102.045-1.093.054-.066-1.083.804-2.008.383-2.587-1.242-1.727-5.333-1.653-8.406-2.578-1.205-2.942 2.624-8.61 13.926-13.487 7.313-1.345 13.394-2.008 16.812.458 3.204 4.352-.234 7.733-2.485 12.366 1.187.112 1.962-1.727 3.998-2.055 3.746-4.184 9.172-10.209 5.54-15.065-2.439-3.278-12.984-4.52-23.875 1.3-1.886.28-3.745.382-5.304.474-.094-.765 1.43-1.083-.346-.794.906-3.53 10.414-8.489 20.155-10.114 4.624.71 8.257 2.082 12.974 2.633.645 2.41 3.811 2.98 4.24 4.334.692 1.224-1.42 2.148.477 2.541-1.84 2.102-2.27 4.427-3.409 6.81-.019.596 1.961-.329 1.671.465-1.382-.532-.84 1.467-1.485.383-5.482 7.66-15.868 13.973-28.225 22.725-.719.411-.785.803-.457 1.177-3.97 1.541-4.652 4.557-8.65 7.248-10.807 10.712-24.667 21.874-35.548 36.566-5.464 7.135-8.844 14.056-12.552 19.604-2.242 4.12-5.128 7.416-7.416 11.48-1.832 3.642-3.643 7.504-5.222 10.754-.83 1.99-1.793 3.315-2.745 5.445-2.439 5.11-3.933 11.077-6.043 15.944-1.54 6.286-2.625 10.862-4.166 15.411-2.354 14.233-4.707 26.03-5.063 39.741-1.755 9.835-.616 23.425-.055 33.98.672 1.187.224 2.588 1.064 2.972-.373 7.103 2.214 15.537 4.474 24.21-.738 1.054.85 4.062 1.952 6.331 2.316 10.255 8.5 22.323 13.534 32.79 2.736 3.281 6.566 8.811 9.153 12.187-1.047-4.058-6.37-9.882-8.453-14.87-.196-.429-.504-1.69-.308-1.867-2.95-4.175-2.764-6.365-5.445-10.373-.253-1.596-1-3.376-2.54-6.178.196-.607-.682-2.036-.216-2.447-1.223-1.779-.634-2.172-1.848-3.95-1.495-6.272-3.372-13.217-5.185-20.852-.299-5.8-1.774-14.099-1.998-21.615-.71-8.49.504-15.075-.196-24.48.803-.878.196-3.914 1.242-4.764-.579-4.745 1.01-6.07.626-10.46 1.69-4.315 2.167-12.124 4.623-16.178l-.112-2.344c10.442-32.223 29.066-66.282 58.254-87.763 7.154-4.306 16-10.293 22.79-13.599.727-.168.746 1.008 1.615.523 1.392-.925-.075-.653.766-1.486 23.864-13.224 57.75-17.792 78.381-13.215 14.131 3.016 25.741 7.65 37.463 11.208.662.85.934.44 1.55 1.13 13.021 3.251 25.35 12.684 37.257 12.898.44-.69.934 1.29 1.383.906l3.278-1.652c.383-5.764-1.28-11.236 1.29-14.805 1.69.608 3.212-.027 5.574 4.745.627 4.054 1.066 8.994 2.018 13.748 2.037-1.895 8.724-1.923 3.886-11.973 2.68-2.578.411-8.798-.486-14.159 4.474-1 10.601 13.467 10.947 18.632 2.876.514 2.054-5.173 3.184-7.416-1.205-13.645-1.848-29.7-24.582-51.547-2.568-1.542-3.95-.934-5.529-.7-4.38-2.55-10.779-5.389-15.795-9.994-3.166-1.54-5.567-1.485-9.228-4.502.747-1.803-1.055-3.68 2.103-3.53-.43-.916-.814-1.289-2.569-2.065-2.345-.243-.57 2.933-3.269 1.87 2.83 3.1-2.279 2.987-1.195 4.744-3.382-.935-5.568-.477-6.744.924-10.742-5.325-17.905-10.19-21.324-14.73-1.27-.289-.42.87-2.073.327 1.887 3.288.653 6.67 9.283 10.686 3.008 3.352 12.965 8.106 18.382 9.63 2.101.465 3.091-.45 4.987-.235-1.457-1.764-.877-3.1-1.457-4.688 2.251-.457 7.183 1.933 12.526 5.688-1.85-.682-3.196-.066-.14 2.325-1.056.58-1.906 2.092-2.989 3.14 1.111-.385 3.483 1.148 4.633.812 5.902 3.362 12.646 10.171 16.232 14.448 4.848 8.136 5.09 13.506 6.184 20.091-1.766 1.616-2.112 2.914-2.214 5.744-3.802 3.764-7.173 3.26-10.592 5.603-1.597-1.38-2.392.823-4.007-.709-5.193 2.242-12.488-1.924-18.017-.99-1.456-2.064-5.837-1.41-8.667-2.055-.449-.084-1.429-.822-1.933-.916-2.858-.597-7.295-2.353-9.752-1.923-4.474-1.663-8.816-2.877-12.879-3.158-4.129-1.456-7.902-2.278-10.928-1.569-5.38-1.886-9.947-.989-14.982-1.298l-3.092-.476c-2.633-.224-7.387.327-10.423.635-.7.056-1.559.645-2.484.87-2.708.634-9.489-.094-10.564 1.26-.046.261-.345.187-.364.074-17.793 3.111-29.776 7.52-43.496 14.123-.598.335-.569-.505-1.12-.346-.562.448-1.327.906-.916 1.326-5.903 2.214-9.976 4.96-15.794 8.892-8.519 4.857-16.168 12.488-22.92 18.55-3.895 3.782-7.36 8.022-10.909 12.693-.916 1.241-2.205 3.717-3.298 2.96 7.09-11.769 16.02-20.23 25.312-28.562 5.333-4.95 11.796-8.499 19.006-13.113 3.41-2.568 7.445-3.362 10.218-5.23 5.744-3.494 13.647-6.22 21.781-9.07 2.15-.868 5.035-.616 5.735-1.616 25.723-6.547 49.428-7.237 70.461-3.334l6.706-1.439 1.102-1.867c1.924-1.532 5.754-2.895 9.453-2.756 2.82 1.747 4.96 2.597 7.377 3.671.888.784.692 1.336 1.756 2.15-1.679 1.381-1.662 1.661-2.773 3.295 3.773 2.382 8.433 1.718 11.722 1.158 1.223-.252 3.604.495 3.026-.989 1.01.466 2.904-.374 2.008-1.962 1.98-.878 3.904-5.127-.86-9.938.3-2.073-1.849-6.043-1.625-7.733.16-1.878 2.42-.13 3.073-1.177 5.492 3.512 8.154 7.827 10.667 12.375.532.477.85.384 1.401.925 1.504-.82-.047-3.185 1.766-3.866-.655-4.054-4.287-8.042-9.229-13.142-.766-.83-2.895-1.85-3.699-2.672-4.436-4.286-4.885-7.285-3.455-9.946-1.514-.794-2.466-.402-4.045-.355-8.592-2.718-23.107-9.63-31.672-15.159-.11-.065-1.924-2.214-2.792-2.83-.813-.552-2.009-1.27-3.204-1.757.205-1.298-1.652-2.436-2.774-3.633.327-1.326.971-2.67-.943-3.81.906-.663 2.176-.69.467-1.897 1.98.794 2.064-1.494 2.596-2.436 2.671-.973 3.867-1.71 4.998-3.363 5.304.308 9.367.168 13.281.57 23.238 2.147 51.023 23.546 64.603 45.373-.746.346 1.991 2.774.786 2.85 5.361 6.248 3.615 8.423 8.658 15 .533-3.158-4.026-10.014-4.053-13.572-4.24-5.79-7.053-10.59-9.724-15.102-7.79-8.622-15.392-16.457-24.835-23.416-12.28-9.06-26.189-13.73-42.525-18.054-17.437-2.616-37.06-2.373-43.636 3.69-3.25 1.922-4.94 3.773-3.96 6.08 1.56 3.857 12.077 4.342 19.642 7.285-.439.7.821 1.073 1.57 1.55.288 5.156-9.686 4.137-19.662 4.83 1.13 1.838 4.27 2.997 6.473 4.435 11.134 1.457 19.671 5.025 21.182 9.611-.54.944-1.427 1.102-2.287 2.746-1.364.467-4.38-.439-4.838.785-23.369-.029-34.708-6.352-43.085-12.068.223-2.512-2.952-2.568-1.112-4.408-2.568-1.514-1.242-5.268-2.158-7.743-.168-.523 1.215-.71 1.606-1.11-1.979-5.792 8.603-9.35 11.47-13.507 2.588-.029 1.84-1.018 4.325-1.074 2.092-2.28 8.92-2.802 11.75-4.493 1.587.01 2.82-.122 4.11-.214 5.38-1.924 13.393-2.046 21.921-1.98 3.137.046 5.93-.243 8.704.083 6.865.701 20.492 5.091 30.01 9.358 47.54 19.895 69.143 66.194 65.286 84.472 1.793 5.67-1.25 6.342.281 11.712-1.262-1.934-1.373.401-.617 2.28-.887-1.55-.98 1.027-.962 2.362-1.784.533-1.859 3.11-2.597 4.857-1.737.915-2.503 1.615-2.68 4.68-.346.457-.664-.935-1-.869-.41.971-.644 1.186-1.037 1.57-3.847 3.67-9.153 2.13-13.262 4.557-1.99-2.11-3.484-.813-5.278-1.298-1.616-.43-3.595-2.326-4.997-1.168-2.232-1.859-4.847-2.662-7.2-2.933-2.765-3.287-5.259-1.84-8.117-4.772-4.026.102-6.903-3.438-10.74-3.67-6.37-4.364-12.48-5.82-18.644-9.322-.262.812 1.86 1.223 2.69 2.465.308.3.496-.037.71-.168 5.922 3.4 11.61 8.098 16.728 10.33 6.763 5.698 13.095 8.164 19.25 13.067l1.018-.364c.131 1.878 1.317.71 1.671.831 2.233.775 5.128 2.307 7.426 3.446l1.234-.373c.56-.616.671 1.467 1.175 1.168l1.87-.542c.811 1.046 3.146 1.895 3.072.7 4.007 1.148 7.406 2.578 10.592-1.233.373-.289.681-.056.896.906.195-2.727 3.792-.682 3.69-3.876 3.558-.85 4.11-6.258 6.603-7.482 2.278-5.967 5.604-13.42 5.576-22.462-.812-3.568-.346-5.819-.822-9.246-.188-1.55-1.299-3.839-1.514-5.324-.177-1.075.514-1.308.272-2.512-.739-4.204-4.522-11.863-6.969-16.925-.158-.346.225-.709.103-.952-.83-1.607-2.587-3.746-3.427-5.343-.748-1.42-.588-2.092-1.439-3.39-5.155-7.902-14.01-18.904-22.677-26.984-9.218-9.04-23.097-17.157-34.24-22.284-20.763-10.303-47.756-12.339-63.588-9.257-4.258.785-9.6 1.616-11.796 3.344-10.657 2.56-20.95 5.688-27.814 10.34-11.638 3.352-16.728 8.732-26.87 13.635l.288.813c-10.209 4.82-15.7 11.171-25.872 18.316-1.606 1.541-1.4 2.746-4.604 4.605-1.933-.197-.523-.916-2.223-1.41-.645.448-.44 1.317-.98.616-.972 1.391.961 1.84 1.858 1.886-1.504 1.588-3.755 3.512-2.793 4.026-.97.028-1.27 1.3-1.662.551-21.109 20.725-46.952 55.732-61.327 88.861-2.643 3.773-4.614 8.102-6.566 13.548-2.316 4.156-4.717 6.967-6.229 12.431-1.69 1.382-2.859 5.23-4.642 6.267-.038 2.298-.869 1.093-.916 3.381-2.466 2.148-4.567 5.212-6.743 8.312l-2.372-.13c-.206 3.475-3.186.86-4.269 3.475-.663-2.27-1.158.924-2.588-.084 1.804-1.448-2.932-1.514-3.493-3.95-2.605-9.192-3.212-23.015-.569-39.42"/><path d="M454.328 363.903c.476.467.86.476 1.298 0-.047-1.97-.646-2.14-1.187-2.484.103 1.185-.177 1.381-.11 2.484zM253.723 300.34c-.84-.215-2.148-.168-3.09.924 1.157.962 1.381-.963 3.09-.924zm-142.136 43.15c.43.317.71-1.793 1.121-1.765.905 8.691 4.688 18.217 9.555 15.901-.44 2.737 1.71 2.672 2.11.411.794 3.661 2.887-1.289 4.24.803 1.952-4.51 5.838-4.212 7.11-10.47-2.308 1.691-5.764.468-6.185-2.849 1.158-4.908 4.362-6.15 6.716-12.35.467-.842.943.484 1.41-1.393 3.11.495 6.258-2.316 9.863-6.137 3.988-4.072 12.46-16.167 17.456-23.153 4.437-6.575 8.5-13.57 12.88-19.456 8.64-11.86 19.278-22.267 25.956-29.99-3.325 1.868-7.91 4.465-9.993 5.006-3.363.214.924-4.166 1.223-5.874 5.417-5.857 12.525-9.22 17.998-11.377.738.261-.402.916.075 1.223 2.026-1.382 1.877-2.316 3.334-3.577 15.45-10.059 26.647-17.307 36.221-24.209 2.167-.533 2.774-1.158 4.68-1.7.793-.28.354-.653.382-.99 4.324-2.204 9.004-4.586 13.412-6.332 2.821-1.243 6.454-2.597 9.107-3.82 1.924-.897 2.167-2.037 4.24-2.802l3.213-.42c7.66-2.12 13.18-4.979 23.304-6.156 4.661-.55 9.331-1.962 14.635-1.868 2.157-.018 4.175.467 5.847.448 1.335-.008 1.532-.532 3.082-.597 2.372-.159 7.332 1.344 6.884-.467 7.285 2.035 13.515 3.52 18.203 4.138 15.953 5.24 27.292 11.161 39.36 17.932.57.738 2.484 1.877 2.044 2.317 8.173 5.267 18.774 16.214 24.247 21.491l1.513 2.624c5.287 5.697 11.535 14.253 14.738 21.511.822 1.718.916 3.324 1.701 4.912.672 1.336 1.858 2.587 2.288 3.577.626 1.672.382 2.681.934 4.418.72 2.261 2.456 5.39 2.812 7.266 1.017 4.652 1.465 9.65 1.71 15.252.391 6.006.606 12.788-1.599 15.551-.149 6.053-3.156 8.052-4.37 13.198-1.71.766-2.654 2.643-3.493 4.652-1.373.56-2.215-.019-2.093 2.316-1.28.766-2.409.02-2.317 2.307-10.778 4.838-20.697 1.046-29.495-2.214 12.123 6.838 26.152 12.712 36.09 6.174 5.006.72 9.162 5.604 14.215 9.083 2.148 3.642 3.793 7.117 6.1 9.275 1.101 5.68 3.847 6.902 4.482 12.18.047.345-.13 1.391-.11 1.447.97 3.41.98 6.78 1.381 13.384.14 3.904 1.083 11.731-.598 17.345-1.12 4.987-3.054 10.003-4.605 15.252-.728 2.457-.906 4.277-1.755 6.631-3.186 6.407-7.379 11.255-11.087 18.176-1.009 2.008-.767 2.745-.906 3.866-1.7 3.531-2.98 3.98-5.006 6.67-2.457.195.364-3.504-1.466-3.755 3.1-4.979-.366-5.035 1.466-9.434-1.588-1.11-2.812-1.046.438-7.145l1.326.72c16.841-10.013 20.97-58.217 13.002-64.026 2.307 16.111-.178 34.763-10.61 58.048-.336-.85-1.25 1.447-1.756 1.522 3.558-10.02 3.297-19.848 6.968-34.09.504-1.859-1.494.503-.617-2.196-1.298 3.755-3.092 4.007-4.549 8.528l-1.456-.392c8.667-23.986.718-46-7.566-50.08-3.045-4.293-7.472-1.823-10.713-4.695-.215.168.01 1.065-.28 1.12-1.046-1.054-3.839-1.932-4.073-.952-3.79-1.084-7.032-3.26-10.983-3.988-12.646-9.2-26.423-21.659-40.844-29.972-.654.261-.214.99-.99 1.196-.943-.944.373-.925.598-1.365-29.906-22.882-68.957-30.68-112.239-13.477-3.37 1.58-5.595 2.924-7.734 3.96 5.988-1.429 12.451-4.128 18.774-5.884 7.92-2.232 15.075-3.24 21.771-4.36 6.538-.684 13.366-1.047 18.364-.852 2.082.178 4.22-.12 6.527-.093 11.517 1.167 25.882 6.8 37.65 12.123 5.735 3.905 11.34 7.071 16.7 12.31 5.651 4.017 9.891 9.462 14.123 13.44 2.353 4.531 5.314 6.043 7.386 10.676.561.074.683 1.924 1.43 1.28 7.463 14.528 14.46 25.242 17.97 40.353 1.093 1 2.335 3.073 1.635 6.053 1.831.195-.14 4.912 1.877 4.95-1.084 6.632 1.887 9.9.411 16.28l.785.345c-1.692 5.128-.336 7.743-1.952 12.907-.402 8.715-6.343 17.72-8.677 26.368-1.12 1.41-2.485 2.605-1.877 3.184-3.587 3.27-3.42 5.073-6.567 8.145-3.746 6.405-8.929 11.915-17.54 17.683-.645.392-.299.612-.28.887-11.433 8.696-35.642 17.667-54.705 18.737-12.133-.052-27.348-2.648-34.418-6.833-20.744-7.159-34.65-21.692-43.534-35.835.664-1.345-3.95-6.183-3.306-7.565-3.783-4.577-1.784-5.66-4.324-10.349.224-.449-.186-1.485.327-1.663-4.988-16.466-1.588-28.646 2.83-39.013 1.325-.084 1.867-1.635 2.27-3.437 1.56-.439 2.493-2.027 3.577-3.297 1.148.074 1.952-.467 2.446-1.56l1.934-.037c.7.205.448-1.28.943-1.42 4.83-.355 5.605-.159 10.993-.028.262.308.571.252 1.01 1.168 3.754-.42 6.425 2.736 10.274 2.746.98 1.811 2.558 2.297 4.342 2.418 5.305 5.072 12.768 9.761 14.786 18.625-.607 1.046-.27 2.316-.187 3.605-1.887 2.923-4.819 3.56-7.612 2.885-3.139-1.932-4.754-5.043-4.82-8.303-1.625-2.045-3.026-3.437-3.054-5.66-.709-.662-1.243-1.802-2.26-2.363l-1.13-.018c-.439-.345-.748-1.476-1.242-1.794-.495-.317-1.41-.075-2.214-.542-1.12-.569-2.018-2.1-2.53-2.427-.609-.299-1.393.242-1.944-.047-.065-.037-.374-1.009-.523-1.084-2.157-.915-5.697-.84-7.874-.98-4.118-.318-7.883 2.017-11.516 3.97-.41 2.438-2.793 1.998-2.53 5.183-3.316 2.7-4.11 9.807-4.662 17.214-.037 4.54-1.26 5.53 1.131 11.432-.374.121-.047.887-.467.971 2.69 9.443 6.725 19.035 12.721 28.18 1.213 1.54 4.67 4.314 3.716 4.92 3.195 3.18 10.004 8.984 12.77 11.45 18.062 13.762 45.905 21.23 68.49 15.15 7.05-.272 11.571-2.789 18.315-4.89 32.157-14.394 46.97-38.736 53.592-60.76.084-.504-.037-.887-.55-1.027 1.55-3.306 1.895-7.864 1.391-10.31 1.878-6.689 1.672-11.424.28-16.41-.756-8.557-1.205-14.245-4.548-21.11-.075-2.877-1.345-3.764-2.065-5.483-1.289-6.688-5.053-12.048-7.939-17.849-5.399-13.556-13.58-23.363-22.864-32.703-.429-.066-.859-.822-1.289-.495-1.96-3.24-4.745-4.559-7.687-7.557-.262-.308-.476 0-.709.113-11.199-9.76-25.266-15.57-39.2-18.465-4.558-1.093-9.05-1.784-13.618-1.97-15.54-1.384-38.798 3.006-57.749 10.151-8.219 3.325-17.923 7.706-26.628 12.628-1.662 2.017-2.25 1.204-4.073 3.596-7.696 4.1-15.802 12.17-21.76 18.39 5.088-3.539 12.196-8.583 18.09-10.208l1.018.802c.29.123.663-.802.942-.587.972 1.158 2.924 1.541 3.868 3.1.308.505.15 2.111.551 2.952.215.448.906.476 1.028.793.027.066-.42.794-.393.916.187.784 1.186 1.224.28 2.186-3.167.541-5.183-2.289-8.349-1.056.018.73-.114 1.607.672 2.073-.383 1.365-.41 2.448-1.644 3.69-4.81-.598-9.172 5.487-14.094 1.905-.495-.495.15-1.793-1.074-1.793-.888.523-2.279 2.288-3.736 2.41-22.967 23.494-35.37 59.986-37.575 98.037 2.783-9.489 7.36-17.839 12.814-24.303 1.99-.738 4.026-1.4 5.175-3.287.906-.13 3.81.252 5.267.224.29-.01.421-.934.73-.926 2.792.047 5.043-.298 7.19-.045.944-1.654 3.661-.944 3.802-3.568 1.784-.206 2.877-1.635 3.475-3.756 4.324-4.455 7.66-15.662 8.284-24.274.43-4.595-1.149-7.603-2.186-11.049-1.054-.4-1.373-1.504-1.802-2.52-5.417-5.419-7.902 11.524-14.215 7.06-.169-1.636-.645-2.896-1.42-3.783-.103-2.719 1.336-4.95 1.896-7.94 2.774-3.493 6.566-7.723 10.413-7.387 1.281.112 2.644 1.802 4.297.794.403.775 1.083 1.326 2.204 1.531 1.318 5.156 5.325 8.527 4.064 16.084 1.42 3.624-.898 8.378-.532 12.917-2.924 5.837-2.485 14.225-6.707 18.231l-.56 2.261c-2.53 1.784-3.409 5.323-5.679 7.444-1.223.028-2.672.448-2.39 1.522-1.346.215-2.813.243-3.233 1.691-6.05.897-13.375-1.4-17.727 5.482-.336.224-.458-.28-.56-.812.037 1.326-1.224.747-.944 2.438l-1.27.233c-.234.243-.355.654-.224 1.43-3.176 2.521-4.67 6.967-6.454 11.394-.682 1.756-1.364 3.708-1.298 6.304-2.242 1.467-.972 7.08-2.896 8.556 1.242 9.004-.084 16.104 2.345 25.201-.496 3.475 1.746 9.892 1.484 13.291 2.644 3.956 2.018 8.004 4.101 9.887.31.653-.233.663-.458.91 2.177 6.604 4.55 11.844 8.238 19.222 4.764 9.045 10.993 18.423 18.363 23.99 3.212-1.509-2.495-6.5-2.065-9.425-4.558-7.48-5.538-11.899-8.032-18.254.354-1.509.766-2.98-.532-5.464.943-2.078.587-4.909.252-7.7 2.316-5.096 4.082-11.316 10.582-9.635.13-.224-.42-.827-.187-.995 4.512 1.368 8.78 1.93 12.722.948l.774 1.06c7.837.154 13.067-7.08 5.744-17.853.72-1.55 1.392-1.135 1.215-2.195 2.008.523 4.39.458 6.82 5.268.811 1.658.707 3.77 1.988 5.305 3.41-1.854-.598-11.218.29-14.64.932-3.303 4.071-3.956 6.864-4.913.69 1.07 1.718 1.877 2.577 3.264-.373 4.936 3.046 11.69 4.306 16.867-1.363.748.28 2.84.271 4.213-.009 1.948-1.802 3.068-1.97 4.964-.034.404 0 .521.037.566-.047.011-.108.041-.243.177-1.243 1.214-2.213 4.33-4.745 5.701-.26.753-1.092-.797-1.419-.317l-2.802 2.695c-2.205-.495-3.129.808-4.8 1.065-6.922 1.032-16.057-2.587-23.557-4.792-1.195 1.616-3.147-.397-4.314 1.415 4.351 5.273 7.341 7.864 12.561 13.74-1.568 4.82-7.49.93-12.029-1.2-.225 1.186-.308 2.446.504 4.142 2.728 3.18 4.063 2.176 6.09 3.287 5.183 6.884-.41 11.423-5.707 5.912-.009 3.045 3.026 7.594 2.914 10.293 4.297 8.121 11.05 14.926 20.548 23.102-.476 1.018-.028 2.088-.523 2.588 5.894 4.273 11.021 5.497 14.552 5.716 8.23 4.128 12.04 1.597 17.512 1.377l.58-1.157c2.913.252 2.092-1.663 3.745-1.76.878-.347-1.4-.875-.523-1.225-.29-.775 2.428.58.29-.579-.057-.673 1.12.094 1.643.094.01-1.845 1.242-2.26.561-4.535-.356-1.19-.403-.34.027-1.186 1.056-2.083-5.146-5.52-6.136-8.98-.187-1.084 1.822 1.083 1.634 0 6.286 3.904 11.32 8.22 14.73 12.464-.467 1.246-1.298 3.124.028 3.694-1.074 1.993-1.457 3.792-2.56 6.173-3.129 2.718-7.05 4.67-11.478 6.417-2.055-.677-3.363-.523-3.867.504-7.173-1.41-13.85-.686-23.425-4.889-1.242.032-2.896-.454-5.043-1.625-4.212 1.167-8.276.686-11.816 1.742-.037.401.934.476.813.887-1.85-.393-3.054.224-5.669-1.322-1.168-.99-.757-1.924-1.85-2.503-.597-.546-.065-.728.057-1.04-2.447-3.882-2.905-6.563-6.679-11.279.514-3.363-8.752-10.452-11.572-15.43-5.763-6.487-11.198-13.468-14.71-20.342-.654-1.088-.812-.402-1.354-1.117-1.187-1.247-.207-1.092.018-1.424-9.274-16.892-12.88-33.092-17.242-50.324-1.317-15.94-3.148-33.435-.653-48.556-.43-5.08.961-6.847.458-12.245 1.643-5.51 2.343-12.403 3.25-19.493.336.14.382-.457.663-.485 2.232-18.662 10.451-33.717 18.213-52.056 6.538-14.926 17.54-28.488 25.301-41.404.59-.99 1.383-2.709 1.841-4.017.383-1.13-.187-.934.3-2.307.241-.757 1.13-1.41 1.353-1.989.43-1.317-.234-2.635.336-4.446.262-.813 1.345-1.887 1.541-2.606.094-.345-.71-.299-.588-.635.13-.336 1.102-1.448 1.373-2.158.29-.794.532-1.242 1.092-2.494 2.513-4.866 8.845-12.002 15.832-12.86 2.494.85 4.623 2.278 3.4 5.25-3.812 2.67-3.577 5.09-6.51 8.012 4.175-1.859 6.052-5.782 9.741-8.247 1.448.513.794 2.101 2.382 2.074 3.166-3.307-4.474-4.279 1.775-8.21-.187-2.065 3.362-5.073 2.867-7.2-.028-.16-1.102.045-1.093.054-.066-1.083.804-2.008.383-2.587-1.242-1.727-5.333-1.653-8.406-2.578-1.205-2.942 2.624-8.61 13.926-13.487 7.313-1.345 13.394-2.008 16.812.458 3.204 4.352-.234 7.733-2.485 12.366 1.187.112 1.962-1.727 3.998-2.055 3.746-4.184 9.172-10.209 5.54-15.065-2.439-3.278-12.984-4.52-23.875 1.3-1.886.28-3.745.382-5.304.474-.094-.765 1.43-1.083-.346-.794.906-3.53 10.414-8.489 20.155-10.114 4.624.71 8.257 2.082 12.974 2.633.645 2.41 3.811 2.98 4.24 4.334.692 1.224-1.42 2.148.477 2.541-1.84 2.102-2.27 4.427-3.409 6.81-.019.596 1.961-.329 1.671.465-1.382-.532-.84 1.467-1.485.383-5.482 7.66-15.868 13.973-28.225 22.725-.719.411-.785.803-.457 1.177-3.97 1.541-4.652 4.557-8.65 7.248-10.807 10.712-24.667 21.874-35.548 36.566-5.464 7.135-8.844 14.056-12.552 19.604-2.242 4.12-5.128 7.416-7.416 11.48-1.832 3.642-3.643 7.504-5.222 10.754-.83 1.99-1.793 3.315-2.745 5.445-2.439 5.11-3.933 11.077-6.043 15.944-1.54 6.286-2.625 10.862-4.166 15.411-2.354 14.233-4.707 26.03-5.063 39.741-1.755 9.835-.616 23.425-.055 33.98.672 1.187.224 2.588 1.064 2.972-.373 7.103 2.214 15.537 4.474 24.21-.738 1.054.85 4.062 1.952 6.331 2.316 10.255 8.5 22.323 13.534 32.79 2.736 3.281 6.566 8.811 9.153 12.187-1.047-4.058-6.37-9.882-8.453-14.87-.196-.429-.504-1.69-.308-1.867-2.95-4.175-2.764-6.365-5.445-10.373-.253-1.596-1-3.376-2.54-6.178.196-.607-.682-2.036-.216-2.447-1.223-1.779-.634-2.172-1.848-3.95-1.495-6.272-3.372-13.217-5.185-20.852-.299-5.8-1.774-14.099-1.998-21.615-.71-8.49.504-15.075-.196-24.48.803-.878.196-3.914 1.242-4.764-.579-4.745 1.01-6.07.626-10.46 1.69-4.315 2.167-12.124 4.623-16.178l-.112-2.344c10.442-32.223 29.066-66.282 58.254-87.763 7.154-4.306 16-10.293 22.79-13.599.727-.168.746 1.008 1.615.523 1.392-.925-.075-.653.766-1.486 23.864-13.224 57.75-17.792 78.381-13.215 14.131 3.016 25.741 7.65 37.463 11.208.662.85.934.44 1.55 1.13 13.021 3.251 25.35 12.684 37.257 12.898.44-.69.934 1.29 1.383.906l3.278-1.652c.383-5.764-1.28-11.236 1.29-14.805 1.69.608 3.212-.027 5.574 4.745.627 4.054 1.066 8.994 2.018 13.748 2.037-1.895 8.724-1.923 3.886-11.973 2.68-2.578.411-8.798-.486-14.159 4.474-1 10.601 13.467 10.947 18.632 2.876.514 2.054-5.173 3.184-7.416-1.205-13.645-1.848-29.7-24.582-51.547-2.568-1.542-3.95-.934-5.529-.7-4.38-2.55-10.779-5.389-15.795-9.994-3.166-1.54-5.567-1.485-9.228-4.502.747-1.803-1.055-3.68 2.103-3.53-.43-.916-.814-1.289-2.569-2.065-2.345-.243-.57 2.933-3.269 1.87 2.83 3.1-2.279 2.987-1.195 4.744-3.382-.935-5.568-.477-6.744.924-10.742-5.325-17.905-10.19-21.324-14.73-1.27-.289-.42.87-2.073.327 1.887 3.288.653 6.67 9.283 10.686 3.008 3.352 12.965 8.106 18.382 9.63 2.101.465 3.091-.45 4.987-.235-1.457-1.764-.877-3.1-1.457-4.688 2.251-.457 7.183 1.933 12.526 5.688-1.85-.682-3.196-.066-.14 2.325-1.056.58-1.906 2.092-2.989 3.14 1.111-.385 3.483 1.148 4.633.812 5.902 3.362 12.646 10.171 16.232 14.448 4.848 8.136 5.09 13.506 6.184 20.091-1.766 1.616-2.112 2.914-2.214 5.744-3.802 3.764-7.173 3.26-10.592 5.603-1.597-1.38-2.392.823-4.007-.709-5.193 2.242-12.488-1.924-18.017-.99-1.456-2.064-5.837-1.41-8.667-2.055-.449-.084-1.429-.822-1.933-.916-2.858-.597-7.295-2.353-9.752-1.923-4.474-1.663-8.816-2.877-12.879-3.158-4.129-1.456-7.902-2.278-10.928-1.569-5.38-1.886-9.947-.989-14.982-1.298l-3.092-.476c-2.633-.224-7.387.327-10.423.635-.7.056-1.559.645-2.484.87-2.708.634-9.489-.094-10.564 1.26-.046.261-.345.187-.364.074-17.793 3.111-29.776 7.52-43.496 14.123-.598.335-.569-.505-1.12-.346-.562.448-1.327.906-.916 1.326-5.903 2.214-9.976 4.96-15.794 8.892-8.519 4.857-16.168 12.488-22.92 18.55-3.895 3.782-7.36 8.022-10.909 12.693-.916 1.241-2.205 3.717-3.298 2.96 7.09-11.769 16.02-20.23 25.312-28.562 5.333-4.95 11.796-8.499 19.006-13.113 3.41-2.568 7.445-3.362 10.218-5.23 5.744-3.494 13.647-6.22 21.781-9.07 2.15-.868 5.035-.616 5.735-1.616 25.723-6.547 49.428-7.237 70.461-3.334l6.706-1.439 1.102-1.867c1.924-1.532 5.754-2.895 9.453-2.756 2.82 1.747 4.96 2.597 7.377 3.671.888.784.692 1.336 1.756 2.15-1.679 1.381-1.662 1.661-2.773 3.295 3.773 2.382 8.433 1.718 11.722 1.158 1.223-.252 3.604.495 3.026-.989 1.01.466 2.904-.374 2.008-1.962 1.98-.878 3.904-5.127-.86-9.938.3-2.073-1.849-6.043-1.625-7.733.16-1.878 2.42-.13 3.073-1.177 5.492 3.512 8.154 7.827 10.667 12.375.532.477.85.384 1.401.925 1.504-.82-.047-3.185 1.766-3.866-.655-4.054-4.287-8.042-9.229-13.142-.766-.83-2.895-1.85-3.699-2.672-4.436-4.286-4.885-7.285-3.455-9.946-1.514-.794-2.466-.402-4.045-.355-8.592-2.718-23.107-9.63-31.672-15.159-.11-.065-1.924-2.214-2.792-2.83-.813-.552-2.009-1.27-3.204-1.757.205-1.298-1.652-2.436-2.774-3.633.327-1.326.971-2.67-.943-3.81.906-.663 2.176-.69.467-1.897 1.98.794 2.064-1.494 2.596-2.436 2.671-.973 3.867-1.71 4.998-3.363 5.304.308 9.367.168 13.281.57 23.238 2.147 51.023 23.546 64.603 45.373-.746.346 1.991 2.774.786 2.85 5.361 6.248 3.615 8.423 8.658 15 .533-3.158-4.026-10.014-4.053-13.572-4.24-5.79-7.053-10.59-9.724-15.102-7.79-8.622-15.392-16.457-24.835-23.416-12.28-9.06-26.189-13.73-42.525-18.054-17.437-2.616-37.06-2.373-43.636 3.69-3.25 1.922-4.94 3.773-3.96 6.08 1.56 3.857 12.077 4.342 19.642 7.285-.439.7.821 1.073 1.57 1.55.288 5.156-9.686 4.137-19.662 4.83 1.13 1.838 4.27 2.997 6.473 4.435 11.134 1.457 19.671 5.025 21.182 9.611-.54.944-1.427 1.102-2.287 2.746-1.364.467-4.38-.439-4.838.785-23.369-.029-34.708-6.352-43.085-12.068.223-2.512-2.952-2.568-1.112-4.408-2.568-1.514-1.242-5.268-2.158-7.743-.168-.523 1.215-.71 1.606-1.11-1.979-5.792 8.603-9.35 11.47-13.507 2.588-.029 1.84-1.018 4.325-1.074 2.092-2.28 8.92-2.802 11.75-4.493 1.587.01 2.82-.122 4.11-.214 5.38-1.924 13.393-2.046 21.921-1.98 3.137.046 5.93-.243 8.704.083 6.865.701 20.492 5.091 30.01 9.358 47.54 19.895 69.143 66.194 65.286 84.472 1.793 5.67-1.25 6.342.281 11.712-1.262-1.934-1.373.401-.617 2.28-.887-1.55-.98 1.027-.962 2.362-1.784.533-1.859 3.11-2.597 4.857-1.737.915-2.503 1.615-2.68 4.68-.346.457-.664-.935-1-.869-.41.971-.644 1.186-1.037 1.57-3.847 3.67-9.153 2.13-13.262 4.557-1.99-2.11-3.484-.813-5.278-1.298-1.616-.43-3.595-2.326-4.997-1.168-2.232-1.859-4.847-2.662-7.2-2.933-2.765-3.287-5.259-1.84-8.117-4.772-4.026.102-6.903-3.438-10.74-3.67-6.37-4.364-12.48-5.82-18.644-9.322-.262.812 1.86 1.223 2.69 2.465.308.3.496-.037.71-.168 5.922 3.4 11.61 8.098 16.728 10.33 6.763 5.698 13.095 8.164 19.25 13.067l1.018-.364c.131 1.878 1.317.71 1.671.831 2.233.775 5.128 2.307 7.426 3.446l1.234-.373c.56-.616.671 1.467 1.175 1.168l1.87-.542c.811 1.046 3.146 1.895 3.072.7 4.007 1.148 7.406 2.578 10.592-1.233.373-.289.681-.056.896.906.195-2.727 3.792-.682 3.69-3.876 3.558-.85 4.11-6.258 6.603-7.482 2.278-5.967 5.604-13.42 5.576-22.462-.812-3.568-.346-5.819-.822-9.246-.188-1.55-1.299-3.839-1.514-5.324-.177-1.075.514-1.308.272-2.512-.739-4.204-4.522-11.863-6.969-16.925-.158-.346.225-.709.103-.952-.83-1.607-2.587-3.746-3.427-5.343-.748-1.42-.588-2.092-1.439-3.39-5.155-7.902-14.01-18.904-22.677-26.984-9.218-9.04-23.097-17.157-34.24-22.284-20.763-10.303-47.756-12.339-63.588-9.257-4.258.785-9.6 1.616-11.796 3.344-10.657 2.56-20.95 5.688-27.814 10.34-11.638 3.352-16.728 8.732-26.87 13.635l.288.813c-10.209 4.82-15.7 11.171-25.872 18.316-1.606 1.541-1.4 2.746-4.604 4.605-1.933-.197-.523-.916-2.223-1.41-.645.448-.44 1.317-.98.616-.972 1.391.961 1.84 1.858 1.886-1.504 1.588-3.755 3.512-2.793 4.026-.97.028-1.27 1.3-1.662.551-21.109 20.725-46.952 55.732-61.327 88.861-2.643 3.773-4.614 8.102-6.566 13.548-2.316 4.156-4.717 6.967-6.229 12.431-1.69 1.382-2.859 5.23-4.642 6.267-.038 2.298-.869 1.093-.916 3.381-2.466 2.148-4.567 5.212-6.743 8.312l-2.372-.13c-.206 3.475-3.186.86-4.269 3.475-.663-2.27-1.158.924-2.588-.084 1.804-1.448-2.932-1.514-3.493-3.95-2.605-9.192-3.212-23.015-.569-39.42z"/><path d="M260.037 455.36c-2.504-1.251-4.979-6.267-6.323-9.648-.188-.495.476-.532.27-1.037-.28-.691-1.53-1.99-1.765-2.56-.709-1.932-1.532-6.023-2.41-9.404.533.074 1.214 1.344 1.018.074.636-.084-1.699-2.745-1.046-2.82-1.793-8.332.252-15.42 2.457-22.211 1.363-.541 2.783-1.037 2.223-3.83 1.298 2.494 3.886-1.914 6.874-1.877 1.858-.01 4.473.533 6.137.916 5.192 1.447 9.433 3.913 14.458 9.928 0 .449-.626.513-.066 1.308-2.55-.252-5.193-3.54-8.042-2.858 4.475 8.33 7.528 15.439 1.234 16.84-.514-.925-2.392-1.383-3.25-.925-3.317-1.98-6.1-3.801-8.416-2.933-1.308-1.15-4.296.057-5.53 1.54-.765.917-.345 2.888-.663 4.214-.765 3.549-1.177 4.857-.522 8.639.168.832.26 1.224.466 2.644.122.868.887 1.447 1.374 2.718.532 1.419.382 2.923.85 4.09 1.466 4.259 5.482 8.014 7.35 11.18l-1.103 1.327c-.69-.598-1.372-1.195-1.615-1.084 1.28 1.96-1.728-.317.02 1.999 1.296.038 1.914-1.055 3.613-.346 9.004 11.206 26.386 21.107 43.17 24.544 1.98.336 4.93 1.433 7.35 1.25.168-.008-.037-.872.084-.863 1.354.145-.112.71.598.93.317.588 15.112.97 17.69-.052 6.547-1.176 13.458-1.877 19.7-5.006 9.833-3.965 20.63-8.303 26.794-14.5 2.615 1.032-6.49 6.309-8.639 9.078-7.314 2.4-13.44 6.422-20.613 8.845-16.729 6.963-55.508 5.772-76.056-11.021-.103-.443-1.766-1.2-.747-1.415-5.118-2.13-9.107-5.613-8.92-8.098-.915-.448-1.485-.308-2.923-1.578.308-.965-6.49-6.354-4.072-6.28-1.682-1.13-1.71-1.185-1.009-1.718"/><path d="M260.037 455.36c-2.504-1.251-4.979-6.267-6.323-9.648-.188-.495.476-.532.27-1.037-.28-.691-1.53-1.99-1.765-2.56-.709-1.932-1.532-6.023-2.41-9.404.533.074 1.214 1.344 1.018.074.636-.084-1.699-2.745-1.046-2.82-1.793-8.332.252-15.42 2.457-22.211 1.363-.541 2.783-1.037 2.223-3.83 1.298 2.494 3.886-1.914 6.874-1.877 1.858-.01 4.473.533 6.137.916 5.192 1.447 9.433 3.913 14.458 9.928 0 .449-.626.513-.066 1.308-2.55-.252-5.193-3.54-8.042-2.858 4.475 8.33 7.528 15.439 1.234 16.84-.514-.925-2.392-1.383-3.25-.925-3.317-1.98-6.1-3.801-8.416-2.933-1.308-1.15-4.296.057-5.53 1.54-.765.917-.345 2.888-.663 4.214-.765 3.549-1.177 4.857-.522 8.639.168.832.26 1.224.466 2.644.122.868.887 1.447 1.374 2.718.532 1.419.382 2.923.85 4.09 1.466 4.259 5.482 8.014 7.35 11.18l-1.103 1.327c-.69-.598-1.372-1.195-1.615-1.084 1.28 1.96-1.728-.317.02 1.999 1.296.038 1.914-1.055 3.613-.346 9.004 11.206 26.386 21.107 43.17 24.544 1.98.336 4.93 1.433 7.35 1.25.168-.008-.037-.872.084-.863 1.354.145-.112.71.598.93.317.588 15.112.97 17.69-.052 6.547-1.176 13.458-1.877 19.7-5.006 9.833-3.965 20.63-8.303 26.794-14.5 2.615 1.032-6.49 6.309-8.639 9.078-7.314 2.4-13.44 6.422-20.613 8.845-16.729 6.963-55.508 5.772-76.056-11.021-.103-.443-1.766-1.2-.747-1.415-5.118-2.13-9.107-5.613-8.92-8.098-.915-.448-1.485-.308-2.923-1.578.308-.965-6.49-6.354-4.072-6.28-1.682-1.13-1.71-1.185-1.009-1.718zM236.93 216.298c-8.172 4.185-21.1 9.789-28.692 13.039-.831-.29.475-1.083 1.168-1.728-.328-.457-2.44 1.233-2.177.075 1.177-.467 2.11-.29 3.474-1.625.645-.346.412 0 .103.186 3.54-1.027 11.777-5.566 15.439-6.07 2.596-2.41 8.835-4.792 10.685-3.877"/><path d="M236.93 216.298c-8.172 4.185-21.1 9.789-28.692 13.039-.831-.29.475-1.083 1.168-1.728-.328-.457-2.44 1.233-2.177.075 1.177-.467 2.11-.29 3.474-1.625.645-.346.412 0 .103.186 3.54-1.027 11.777-5.566 15.439-6.07 2.596-2.41 8.835-4.792 10.685-3.877zM217.428 444.9c1.13 3.866 3.54 11.674-.084 12.02-1.672-3.213-3.69-5.287-5.68-6.92-.307-.309-1.381-.543-1.69-.945-.15-.177-.224-.962-.382-1.083-1.98-1.625-3.765-1.728-5.791-2.802-.551-.299-.943-1.467-1.28-1.644-1.186-.644-2.577-.55-4.026-.336-.391-2.345-2.885.616-3.567-.99-.448.523-2.232-.196-1.57 1.363-.98-.336-1.082-.672-1.438.467-.513.187-.354-.214-.495-.728-1.886.112-1.774 2.14-3.82 2.11-.73 3.092-4.417 3.344-4.538 7.136l-1.215.44c-4.007 8.36-6.987 17.071-6.267 29.166l-.765.397c.989 4.735-1.131 6.276 1.512 11.904-.486 8.237 4.306 19.296 10.359 30.49 1.269 4.432 8.172 11.707 8.984 15.943-2.886-.775-9.041-12.454-11.554-16.639-2.801-5.37-5.95-9.587-5.547-11.946-4.98-8.882-4.55-15.826-6.408-23.176.187-4.246.682-8.963.42-13.829l.785-.369c-.626-4.254-.327-7.546 1.036-10.064 1.365-11.318 5.633-18.042 9.818-26.607 1.484-.654 2.587-1.755 3.119-3.493 2.699-.999 5.109-2.335 6.93-4.278 1.018 1.317 1.747.691 2.307-.55.588-.486.813.447 1.13.971 2.998-.84 6.379-2.13 9.91-1.289.037.01.13.663.177.72.337.43.814-.365 1.047-.272.42.16.55 1.01.98 1.27.393.225.897-.438 1.25-.345.048.028.375.952.468 1.018.346.205.906-.495 1.252-.346l2.775 1.43c.953.438 1.279 1.26 1.849 1.643.56.392 1.69.346 2.783 1.308 3.662 3.101 3.989 4.68 6.697 8.396 1.485 1.653 4.184 7.192 3.587 10.638-1.346 3.708-6.1 2.98-8.715-1.896-1.401-2.66-2.055-7.173-4.343-8.284"/><path d="M217.428 444.9c1.13 3.866 3.54 11.674-.084 12.02-1.672-3.213-3.69-5.287-5.68-6.92-.307-.309-1.381-.543-1.69-.945-.15-.177-.224-.962-.382-1.083-1.98-1.625-3.765-1.728-5.791-2.802-.551-.299-.943-1.467-1.28-1.644-1.186-.644-2.577-.55-4.026-.336-.391-2.345-2.885.616-3.567-.99-.448.523-2.232-.196-1.57 1.363-.98-.336-1.082-.672-1.438.467-.513.187-.354-.214-.495-.728-1.886.112-1.774 2.14-3.82 2.11-.73 3.092-4.417 3.344-4.538 7.136l-1.215.44c-4.007 8.36-6.987 17.071-6.267 29.166l-.765.397c.989 4.735-1.131 6.276 1.512 11.904-.486 8.237 4.306 19.296 10.359 30.49 1.269 4.432 8.172 11.707 8.984 15.943-2.886-.775-9.041-12.454-11.554-16.639-2.801-5.37-5.95-9.587-5.547-11.946-4.98-8.882-4.55-15.826-6.408-23.176.187-4.246.682-8.963.42-13.829l.785-.369c-.626-4.254-.327-7.546 1.036-10.064 1.365-11.318 5.633-18.042 9.818-26.607 1.484-.654 2.587-1.755 3.119-3.493 2.699-.999 5.109-2.335 6.93-4.278 1.018 1.317 1.747.691 2.307-.55.588-.486.813.447 1.13.971 2.998-.84 6.379-2.13 9.91-1.289.037.01.13.663.177.72.337.43.814-.365 1.047-.272.42.16.55 1.01.98 1.27.393.225.897-.438 1.25-.345.048.028.375.952.468 1.018.346.205.906-.495 1.252-.346l2.775 1.43c.953.438 1.279 1.26 1.849 1.643.56.392 1.69.346 2.783 1.308 3.662 3.101 3.989 4.68 6.697 8.396 1.485 1.653 4.184 7.192 3.587 10.638-1.346 3.708-6.1 2.98-8.715-1.896-1.401-2.66-2.055-7.173-4.343-8.284zm24.2-162.932c-1.364-.205-1.793-1.942-3.484-1.644.924 1.046.803 3.81 2.017 4.09-.448-.736.272-1.568 1.467-2.446m-1.346 2.625c1.318.187 2.466.326 2.746 1.335 1.41-.673-.084-1.148-.084-1.728-1.157.608-1.335-.466-2.662.393M161.154 407.24c1.906-14.775 7.594-30.046 14.029-42.253 4.25-10.386 10.264-20.758 17.54-31.51 11.909-18.212 30.029-33.053 40.564-47.278.542-1.298.635-2.363 2.157-3.68-.943-.803.365-1.83-.176-2.681.634-.727 1.158-.588 2.129-1.568-1.037.428-1.308-.356-1.663-1.01.673.01 1.588.393 2.223-.615-.354-3.998 7.482-8.482 12.516-8.79 3.315 2.4-.31 5.688-1.747 8.565 5.296-2.69 6.445-6.874 9.443-9.806-5.044-3.027 4.269-13.936 15.317-12.162-.074.98.71 1.25 1.728 1.327 1.252 2.195-.271 3.848-.074 5.819-1.364.262-1.261.812-1.037 1.39-4.343 3.513-7.967 7.23-12.627 11.134-.702.55-2.607.785-2.01 1.672-2.567.477-5.537 3.008-6.051 4.549-4.26 1.96-5.558 3.362-9.378 6.482-.681.54-.812.149-1.017-.131-.206.859-1.308.682-.477 1.56-1.232-.421-2.755 1.793-4.315 2.914-6.576 5.445-15.813 12.889-20.277 18.213-1.074 1.485-4.735 3.643-8.107 7.939-1.177 1.457-2.372 2.643-3.577 3.437-5.044 6.632-11.134 14.953-16.355 21.678-9.013 15.547-16.746 27.193-21.061 43.52-1.15 1.746-2.074 4.325-2.307 8.246-2.326 3.186-2.41 10.864-5.39 13.039"/><path d="M241.628 281.968c-1.364-.205-1.793-1.942-3.484-1.644.924 1.046.803 3.81 2.017 4.09-.448-.736.272-1.568 1.467-2.446zm-1.346 2.625c1.318.187 2.466.326 2.746 1.335 1.41-.673-.084-1.148-.084-1.728-1.157.608-1.335-.466-2.662.393zM161.154 407.24c1.906-14.775 7.594-30.046 14.029-42.253 4.25-10.386 10.264-20.758 17.54-31.51 11.909-18.212 30.029-33.053 40.564-47.278.542-1.298.635-2.363 2.157-3.68-.943-.803.365-1.83-.176-2.681.634-.727 1.158-.588 2.129-1.568-1.037.428-1.308-.356-1.663-1.01.673.01 1.588.393 2.223-.615-.354-3.998 7.482-8.482 12.516-8.79 3.315 2.4-.31 5.688-1.747 8.565 5.296-2.69 6.445-6.874 9.443-9.806-5.044-3.027 4.269-13.936 15.317-12.162-.074.98.71 1.25 1.728 1.327 1.252 2.195-.271 3.848-.074 5.819-1.364.262-1.261.812-1.037 1.39-4.343 3.513-7.967 7.23-12.627 11.134-.702.55-2.607.785-2.01 1.672-2.567.477-5.537 3.008-6.051 4.549-4.26 1.96-5.558 3.362-9.378 6.482-.681.54-.812.149-1.017-.131-.206.859-1.308.682-.477 1.56-1.232-.421-2.755 1.793-4.315 2.914-6.576 5.445-15.813 12.889-20.277 18.213-1.074 1.485-4.735 3.643-8.107 7.939-1.177 1.457-2.372 2.643-3.577 3.437-5.044 6.632-11.134 14.953-16.355 21.678-9.013 15.547-16.746 27.193-21.061 43.52-1.15 1.746-2.074 4.325-2.307 8.246-2.326 3.186-2.41 10.864-5.39 13.039zm79.343 136.152c-.56-1.354-1.849-2.862-1.24-3.941-3.625-7.986-18.906-23.098-29.002-30.841-3.307-1.64-7.033-2.97-9.229-3.993-.69-2.634 2.317.089 3.13-1.204 2.811 1.765 6.08 3.833 9.134 5.034 3.886 3.484 8.37 6.21 13.524 10.175 5.782 5.18 10.797 10.256 15.654 14.874 2.588 3.456 4.147 6.398 6.304 9.332.094 1.835-.755 3.567-.158 5.486-5.109 4.16-12.105 6.973-24.33-1.302-2.803-4.843-4.297-8.757-.197-11.48-.915-5.991 10.246 2.747 16.41 7.86"/><path d="M240.497 543.392c-.56-1.354-1.849-2.862-1.24-3.941-3.625-7.986-18.906-23.098-29.002-30.841-3.307-1.64-7.033-2.97-9.229-3.993-.69-2.634 2.317.089 3.13-1.204 2.811 1.765 6.08 3.833 9.134 5.034 3.886 3.484 8.37 6.21 13.524 10.175 5.782 5.18 10.797 10.256 15.654 14.874 2.588 3.456 4.147 6.398 6.304 9.332.094 1.835-.755 3.567-.158 5.486-5.109 4.16-12.105 6.973-24.33-1.302-2.803-4.843-4.297-8.757-.197-11.48-.915-5.991 10.246 2.747 16.41 7.86zm92.878-84.829c1.167-1.046-1.514-1.812-2.522-2.334-.691-3.503-1.58-4.419-4.138-7.276 1.373-.187 1.746-1.383 2.513-2.065 5.566-.924 7.761.393 11.264.981 1.634-.812 4.679-2.185 5.874-3.11 4.605-.364 3.97 5.193 5.576 7.033.915.037.991.85 2.56.308 5.352 4.661 19.118-.215 29.355-7.883 11.788-9.303 16.438-20.688 20.278-30.98l2.904-14.179c-.579-5.277.074-10.918-1.401-15.243 1.373-4.36-2.13-8.079-1.298-14.084 2.139.027 1.783 4.24 2.474 5.697 2.383 4.828 1.243 11.544 2.504 16.251-.253 2.99-.327 5.848.645 7.584-1.84 10.041-2.84 19.53-8.024 29.356-7.621 15.066-26.619 30.187-43.552 33.802-3.316.857-7.594 2.047-10.863 2.458-2.586-.098-4.324-1.11-9.069-.32-9.303-.188-15.644-3.567-23.014-6.612-6.061-3.876-8.797-9.9-10.348-14.617.607-1.606.392-3.176 1.727-4.418 2.691-.159 5.035 1.242 8.342 2.447 7.21 4.427 9.844 14.253 18.213 17.204"/><path d="M333.375 458.563c1.167-1.046-1.514-1.812-2.522-2.334-.691-3.503-1.58-4.419-4.138-7.276 1.373-.187 1.746-1.383 2.513-2.065 5.566-.924 7.761.393 11.264.981 1.634-.812 4.679-2.185 5.874-3.11 4.605-.364 3.97 5.193 5.576 7.033.915.037.991.85 2.56.308 5.352 4.661 19.118-.215 29.355-7.883 11.788-9.303 16.438-20.688 20.278-30.98l2.904-14.179c-.579-5.277.074-10.918-1.401-15.243 1.373-4.36-2.13-8.079-1.298-14.084 2.139.027 1.783 4.24 2.474 5.697 2.383 4.828 1.243 11.544 2.504 16.251-.253 2.99-.327 5.848.645 7.584-1.84 10.041-2.84 19.53-8.024 29.356-7.621 15.066-26.619 30.187-43.552 33.802-3.316.857-7.594 2.047-10.863 2.458-2.586-.098-4.324-1.11-9.069-.32-9.303-.188-15.644-3.567-23.014-6.612-6.061-3.876-8.797-9.9-10.348-14.617.607-1.606.392-3.176 1.727-4.418 2.691-.159 5.035 1.242 8.342 2.447 7.21 4.427 9.844 14.253 18.213 17.204zM196.198 559.069c.905.893.7-.392 1.148-.406-.327 1.186 2.16 3.516 1.99 4.773-2.933-.547-6.015-4.881-9.04-6.613-7.987-8.775-20.24-23.303-25.48-34.13-7.556-11.286-15.907-23.353-21.818-21.77-2.158-1.224-7.193-10.517-7.64-16.2-.14-2.073 1.166-1.91.541-4.086 2.493-2.573 5.38 1.788 8.256 4.08-4.464-8.222-9.013-14.532-13.449-19.17-2.709.07-2.438 3.826-5.333 3.67-1.308-3.674-3.942-5.211-4.156-10.158-4.989-2.316-8.239-22.201-1.476-18.316.01-12.973 5.566-.121 8.648 1.775 10.517 20.389 24.835 52.698 38.93 77.01 3.277 5.338 5.763 12.02 10.48 17.153 3.96 7.944 12.253 16.042 18.4 22.388"/><path d="M196.198 559.069c.905.893.7-.392 1.148-.406-.327 1.186 2.16 3.516 1.99 4.773-2.933-.547-6.015-4.881-9.04-6.613-7.987-8.775-20.24-23.303-25.48-34.13-7.556-11.286-15.907-23.353-21.818-21.77-2.158-1.224-7.193-10.517-7.64-16.2-.14-2.073 1.166-1.91.541-4.086 2.493-2.573 5.38 1.788 8.256 4.08-4.464-8.222-9.013-14.532-13.449-19.17-2.709.07-2.438 3.826-5.333 3.67-1.308-3.674-3.942-5.211-4.156-10.158-4.989-2.316-8.239-22.201-1.476-18.316.01-12.973 5.566-.121 8.648 1.775 10.517 20.389 24.835 52.698 38.93 77.01 3.277 5.338 5.763 12.02 10.48 17.153 3.96 7.944 12.253 16.042 18.4 22.388zm-42.086-252.556c-.579 3.568-4.119 9.098-6.454 12.273-.71-.27-1.69-.252-2.149-1-.644-1.017-1.017-5.613-.84-8.311.028-.327.86-2.065.924-2.896.336-2.774.813-8.06 2.111-12.114.28-.888 1.7-3.503 1.86-3.923 3.11-7.416 7.163-18.792 14.15-26.946 4.305-5.687 10.59-10.236 14.924-14.691 9.406-6.651 23.23-16.607 30.934-17.345-.289 1.177-1.914 2.662-2.026 3.792-6.07 1.354-18.232 11.629-21.697 15.132-4.026 6.248-4.325 10.88-6.314 16.185-1.494 1.887-3.072 3.905-2.615 4.81-1.83 1.504-2.886 3.82-4.726 5.969-4.306 4.772-7.21 8.069-10.17 9.18-.702-.952-1.785-.643-3.326 1.28-1.158 5.09.224 8.76 1.177 12.684-1.439 3.54-4.586 7.696-5.763 5.92"/><path d="M154.112 306.513c-.579 3.568-4.119 9.098-6.454 12.273-.71-.27-1.69-.252-2.149-1-.644-1.017-1.017-5.613-.84-8.311.028-.327.86-2.065.924-2.896.336-2.774.813-8.06 2.111-12.114.28-.888 1.7-3.503 1.86-3.923 3.11-7.416 7.163-18.792 14.15-26.946 4.305-5.687 10.59-10.236 14.924-14.691 9.406-6.651 23.23-16.607 30.934-17.345-.289 1.177-1.914 2.662-2.026 3.792-6.07 1.354-18.232 11.629-21.697 15.132-4.026 6.248-4.325 10.88-6.314 16.185-1.494 1.887-3.072 3.905-2.615 4.81-1.83 1.504-2.886 3.82-4.726 5.969-4.306 4.772-7.21 8.069-10.17 9.18-.702-.952-1.785-.643-3.326 1.28-1.158 5.09.224 8.76 1.177 12.684-1.439 3.54-4.586 7.696-5.763 5.92zm55.312-72.833c.672-1.261 2.95-2.876 1.41-3.661 5.128-3.465 13.627-5.315 18.082-8.508 1.112-.44 2.456-1.094 2.512-.486 1.552-1.86 7.202-3.148 8.668-5.231 12.217-4.287 15.888-9.2 27.59-11.992 1.308 1.354-3.95 1.924-3.212 3.316-4.175.859-7.604 3.493-10.377 5.165-13.132 5.893-31.597 15.486-44.673 21.398"/><path d="M209.424 233.68c.672-1.261 2.95-2.876 1.41-3.661 5.128-3.465 13.627-5.315 18.082-8.508 1.112-.44 2.456-1.094 2.512-.486 1.552-1.86 7.202-3.148 8.668-5.231 12.217-4.287 15.888-9.2 27.59-11.992 1.308 1.354-3.95 1.924-3.212 3.316-4.175.859-7.604 3.493-10.377 5.165-13.132 5.893-31.597 15.486-44.673 21.398z"/><path d="M205.883 221.669c-1.223.178-.7-1.69-2.68-.626.504.925-1.56.393-2.148 1.588.299.598.888.859 1.915.579.522-1.29 1.167-.168 1.895-.673.047-.214.346-.494 1.018-.868m.104 3.988l-1.308 1.57c-11.675 5.034-21.314 1.81-16.635-7.08 1.457-.412 1.588-1.16 3.493-2.251 1.97 2.419 7.248.092 9.04 2.727 4.13-1.345 7.558-1.952 10.472-1.812 4.212-2.082 6.902-2.624 10.983-4.511-1.111-.532-3.586.252-6.08 1.074-5.38-.168-2.4-6.716 12.245-11.9 4.119-.214 10.03-1.54 16.335-2.624 3.027-.355 5.754.822 7.416-.934 8.248-.691 21.23-4.082 29.356-6.528 1.774-.655 4.52-1.215 7.21-1.971 2.98-.87 7.818-1.841 11.367-2.746 7.706-1.868 19.035-2.363 29.99-1.84 1.178.55.393 1.345.44 2.036-20.147-1.495-28.057 3.549-43.44 6.753-2.01 1.26-8.434 2.278-10.088 3.895-3.586.326-9.274 2.045-11.263 3.352-11.62 3.82-26.116 9.957-39.536 15.272-2.205.886-6.11 3.483-6.11 3.483-.68.308-3.557.785-6.21 1.915-3.998 1.98-6.65 3.316-7.677 2.12"/><path d="M205.883 221.669c-1.223.178-.7-1.69-2.68-.626.504.925-1.56.393-2.148 1.588.299.598.888.859 1.915.579.522-1.29 1.167-.168 1.895-.673.047-.214.346-.494 1.018-.868zm.104 3.988l-1.308 1.57c-11.675 5.034-21.314 1.81-16.635-7.08 1.457-.412 1.588-1.16 3.493-2.251 1.97 2.419 7.248.092 9.04 2.727 4.13-1.345 7.558-1.952 10.472-1.812 4.212-2.082 6.902-2.624 10.983-4.511-1.111-.532-3.586.252-6.08 1.074-5.38-.168-2.4-6.716 12.245-11.9 4.119-.214 10.03-1.54 16.335-2.624 3.027-.355 5.754.822 7.416-.934 8.248-.691 21.23-4.082 29.356-6.528 1.774-.655 4.52-1.215 7.21-1.971 2.98-.87 7.818-1.841 11.367-2.746 7.706-1.868 19.035-2.363 29.99-1.84 1.178.55.393 1.345.44 2.036-20.147-1.495-28.057 3.549-43.44 6.753-2.01 1.26-8.434 2.278-10.088 3.895-3.586.326-9.274 2.045-11.263 3.352-11.62 3.82-26.116 9.957-39.536 15.272-2.205.886-6.11 3.483-6.11 3.483-.68.308-3.557.785-6.21 1.915-3.998 1.98-6.65 3.316-7.677 2.12zm213.287 351.476l19.772.125 4.83 7.314 41.674-10.475-41.43-10.661-4.99 7.285-20.005-.761-28.469-.941-9.956-.035c-41.47.677-79.997.723-113.742-17.503-68.705-32.86-103.254-109-96.866-171.186 5.661-63.582 52.183-106.331 91.187-119.23 40.226-14.505 70.834-6.258 82.322-3.222 11.853 4.138 3.027-4.55-26.683-10.125-28.488-4.38-84.34 2.634-124.624 51.856-41.2 47.013-47.25 136.378 1.587 203.04 23.24 33.348 59.72 59.687 101.722 70.334 30.846 7.519 62.896 6.153 95.053 5.474z"/><path d="M419.274 577.133l19.772.125 4.83 7.314 41.674-10.475-41.43-10.661-4.99 7.285-20.005-.761-28.469-.941-9.956-.035c-41.47.677-79.997.723-113.742-17.503-68.705-32.86-103.254-109-96.866-171.186 5.661-63.582 52.183-106.331 91.187-119.23 40.226-14.505 70.834-6.258 82.322-3.222 11.853 4.138 3.027-4.55-26.683-10.125-28.488-4.38-84.34 2.634-124.624 51.856-41.2 47.013-47.25 136.378 1.587 203.04 23.24 33.348 59.72 59.687 101.722 70.334 30.846 7.519 62.896 6.153 95.053 5.474z"/></g></svg>