<svg xmlns="http://www.w3.org/2000/svg" viewBox="0 0 1178.5175 198.35182" height="198.352" width="1178.517"><defs><clipPath id="a"><path d="M0 104.811h572.103V0H0z"/></clipPath><clipPath id="b"><path d="M0 104.811h572.103V0H0z"/></clipPath></defs><g fill="#ffe0ff"><g clip-path="url(#a)" transform="matrix(2.59918 0 0 -2.59918 -55.633 231.747)"><path d="M431.797 53.303c-.068-.011.067-.102.103-.097-.024-.128-.18-.038-.202.166-1.66.928-4.649 2.919-7.465-.15-.243.065-.23.147-.272.369 1.624 1.845 3.948 2.467 5.398 1.714.116.13.152-.036.254.059.475-.392 1.143-.47 1.537-.785.796-.241 1.746-.612 2.074-.26.235.469 1.063.66.815-.19-.172-.227-.309-.342-.469-.616.127.12.112-.01.216.028.194.183.44.497.707.654.677 1.147 2.05.868 1.625-.271-1.03-.892-2.073-1.161-2.608-1.557-.226-.236-.23-.115-.295-.146-.46-.446.121.516-1.418 1.082" fill-rule="evenodd"/><path d="M426.655 50.752c-.316.308-.295.752-1.046.989-.268-.083-.675-.285-.841-.466.33-.227.82-.345.844-.729-.181-.45-.567-.263-.853-.695.089-.358.529-.628.328-1.108-.27-.02-.328.131-.485.209-.51.026-.811-.244-1.206-.438-1.365-2.256-.461-5.811 1.32-8.037.739-.851 1.568-1.67 2.488-2.655.179-.234.656-.438.579-.733-.315-.057-.524.331-.707.537-.533.475-1.068 1.099-1.548 1.51-3.773 2.633-5.697 11.874-1.048 13.269l.24.277c.804.151 1.82.508 2.69-.188.083-.029.17-.077.242-.054l.583-.498c.26-.506-.467-.486-.903-.419-.34-.15-.304-.809-.677-.771" fill-rule="evenodd"/><path d="M426.42 44.644c-.7-.887.226-2.151-.46-3.084.42-1.386 1.948-2.41 2.843-3.268.467-.455.874-.88 1.388-1.232.572-.375 1.092-.643 1.55-1.103-.26-.396-.745.018-.972.184-1.214.698-2.419 1.586-3.428 2.406-.48.316-.952.562-1.4.937-.522.555-1.103 1.51-1.562 2.48-.834 1.788-.794 3.827.047 4.958.283.12.377.433.836.349-.004-.138.074-.17.191-.151.047-.241.023-.548.166-.76-.109-.761-.803-1.393-.38-2.387.18.548.715 1.287 1.181.67m3.35 11.72c.006.352.12.665.284.978.775.652 1.688.117 2.024-.527l.039-.449c.595-.714 1.224-.734 1.76-.549.119.015.239.18.378.24l.85.263c.172.063.338.225.538.307.217.087.451.084.702.208.11.05.225.23.342.265.185.065.669.073.861.421.182-.078.309.196.5.106.599.431 1.191 1.037 1.749 1.714.269-.093.318-.168.491-.4l-.992-.988c-.673-.323-1.13-.704-1.663-1.035-.072-.046-.121.043-.173.024-.063-.022-.136-.187-.175-.205-.409-.176-.94-.419-1.14-.477-.053-.01-.082.08-.152.051-.097-.028-.287-.182-.425-.252a9.396 9.396 0 0 1-.661-.359l-.078.052c-.107-.069-.288-.233-.455-.228-.715-.615-1.03-.467-1.919-.518l-.274.187c-.134.022-.148-.1-.225-.02-.617.29-1.234.303-1.869.718-.076.227-.206.513-.317.473m27.7-3.653c-.928-.396-1.86-1.589-1.406-2.987-.059-.131-.206-.081-.223-.293-.588.041-.7.097-1.13.39-.798 2.92 1.57 4.298 3.032 5.325l.496.035c.147-.057.085.203.17.241.365.027.556.065.708.291.957.036 1.675.316 2.267.954.057.06.193.215.231.281.024.039-.007.239.006.257.188.241.477.305.64.605.198.366.236 1.026.431 1.398l.265.048c-.039-1.624-.642-2.22-.952-3.55-.414-.306-.609-.96-1.12-1.082-.232-.433-.515-.667-.763-1.004-.256-.392-.717-1.001-.883-1.614-.093-.359-.035-.81-.145-1.192-.026-.123-.31-.241-.249-.497-.144-.13-.336-.142-.392-.467-1.365-.215-1.542 1.761-.983 2.861" fill-rule="evenodd"/><path d="M416.819 52.863c-.668 1.108-.224 2.926-.107 4.432.82 2.738 2.468 5.766 5.408 7.9 4.573 3.171 9.826 3.247 13.86 1.563.484-.46 1.125-.902 1.934-1.31.422-.415.589-.852 1.266-1.397.268-.81 1.013-1.549.86-2.316-.04-.103.25-.27.235-.379-.337-.554-.378-.685-.428-1.294-.654-.87-1.323-1.683-2.17-2.115-.261-.15-.463-.095-.823-.27-.293-.129-.427-.213-.688-.308-.778-.225-1.681-.283-2.552.17-.091.178-.127.416-.323.531-.131.763.4 1.324 1.136 1.225.563-.28.675-.762 1.417-.637.073 0 .132.074.27.097.109.016.29-.06.334-.045.135.048.174.22.374.357.272.184.627.194.853.408.363.334.446.911.829 1.344-.02.1.128.204-.077.3.327.348.305 1.323-.006 2.014-.182.517-.862.925-.881 1.297-1.356 1.353-3.903 2.458-6.356 2.675-4.121.237-8.331-1.267-11.111-4.419-1.666-2.035-2.826-4.416-3.098-6.528-.236-1.078.108-2.237-.156-3.295" fill-rule="evenodd"/><path d="M426.166 38.028c-.083-.04-.104-.1-.022-.176-.75.561-1.583 1.141-2.066 1.852-.144.208-.317.224-.45.343-.294.585-.723.781-1.005 1.35-1.577 1.991-2.716 5.465-1.948 8.715.742 2.824 2.526 5.048 3.434 7.14.305.536.749 1.321 1.125 2.058.44.327 1.386 1.144 1.99.996.244-.005.384-.106.67-.134.388-.537-.114-.89-.167-1.394 1.413-.413.75 2.808 3.22 2.23.362-.12 1.13-.802.697-1.338-.046-.06-.21-.176-.28-.253-1.172-1.209-3.322-2.12-5.497-3.524-.903-.36-1.343-1.282-2.013-1.748-.474-.48-1.13-1.363-1.593-1.927-.115-.244-.115-.517-.218-.766-.648-1.405-1.266-3.128-.971-5.223.148-.888.32-1.859.669-2.583.304-.637.632-.855.785-1.437.37-.502.818-.932 1.265-1.437.18-.209.253-.562.465-.754.24-.225.544-.333.759-.563.34-.43.902-.956 1.152-1.427m32.638 29.467c-.097.15-.2-.075-.189.192-1.122-.426-2.636.116-3.029 2.01.75.693 1.684-.612 2.627-.185.076-.178.138-.066.211-.18.32.26.832.278.732.712.061.091.143-.116.21-.088.682 1.36 1.211 2.74.858 4.738l.297.206c.744-.909.45-1.477.483-2.14.017-.455.13-1.086-.069-1.385-.045-.069.04-.514.015-.643-.1-.487-.363-.738-.226-1.385-.32.025-.023-.435-.285-.453.031-.232-.095-.339-.012-.612-.218-.154-.348-.377-.3-.735a2.768 2.768 0 0 1-.626-1.423c-.472-.326-.818-.537-.96-1.212-.1-.056-.163.132-.249.164-.439-.67-1.322-.739-2.054-1.087-.096-.095-.132.114-.2.162-.89-.095-1.954.208-2.342 1.822-.095.351-.005.666-.19 1.128.21.288.37.587.666.644.618.116 1.29-.939 1.86-.813.086-.346.531.007.75-.329.668.221 1.702.1 2.022.892m-15.458-34.877c.126-.39-.446-.344-.742-.426-3.419-.916-6.252-1.338-8.88-1.66-1.485-.326-3.28-.242-4.415-.92-.246.176-.186-.097-.418.057-.932-.534-1.936-.773-2.392-2.133.034-1.044 1.297-2.265 2.362-3.248 1.573-.383 2.713-1.14 2.717-1.768-.427-.104-.71-.322-1.11-.455-3.197.4-4.794 2.371-5.976 3.796.165.481-.506 1.071-.119 1.51.181.084-.274.255-.124.343.328.083.361 1 1.023 1.01.088.083-.284.216-.133.293.353-.212.366.133.507.27.013.161.281-.103.324.011.311.59 1.113.321 1.434.861.546-.143.952.038 1.274.316.956-.04 1.675.197 2.608.322.31.038.657-.054.973-.02 1.541.18 3.02.35 4.426.593.553-.092.906.13 1.506.12 1.53.318 3.57.742 5.155 1.128" fill-rule="evenodd"/><path d="M445.774 33.298c.053-.197.18-.16.15-.328-1.236-.67-2.44-1.123-3.71-1.534-.737-.48-1.685-.67-2.48-1.06-.392-.271-.832-.624-1.3-.681-.165-.001-.025-.161-.063-.23-1.242-.421-1.044-1.505-1.402-2.445-.634-.166-1.098-.448-1.576-.732-1.282.167-1.375.852-2.057 1.24-.43-.304-.032-.916-.363-1.355-.353-.451-1.698-.334-2.732.248-.174.228-.114.48-.324.699-.01.86.706.88 1.209 1.375.512.163 1.142.324 1.513.648 1.54.293 3.036.8 4.722 1.216.087.012.06.085.073.139 2.239.325 3.946 1.33 5.902 1.694.735.529 1.472.549 2.438 1.106m4.897 2.272c-.643-.627-1.29-1.132-2.418-1.755-.028.058-.057.115-.132.076-.123-.092.152-.047.031-.192-.67-.514-1.03-.825-1.877-1.31-.397-.499-.99-.753-1.46-1.14-.732-.638-1.209-1.284-2.117-1.784-.23-.648-1.21-1.018-1.22-1.689-.352-.03-.136-.26-.464-.3-.407-1.12.252-1.88 1.976-1.898l.097-.44c-.468-.423-1.36-.525-2.199-.512-.533.252-.8.405-1.2.708-.265.762-.105 1.467.292 2.253.758.908 1.75 1.542 2.495 2.471.397.173.53.418.951.576 1.158 1.06 2.924 2.376 4.563 3.335.224.318.712.608 1.144.875.482.356 1.225.935 1.538.726m-28.614 4.54c-.662-.005-1.362 1.201-2.054 1.644-.663 1.162-1.58 1.641-2.119 2.924l-.178-.024c-.528.965-1.419 2.017-2.127 2.172-.053.011-.115.177-.099.18-.284-.024-.737-.755-1.076-1.076-.132-.123-.322.096-.345-.313-1.055-.33-1.46 1.05-2.28 1.412.005.213-.026.331-.106.316.346 1.671.975 3.051 1.922 2.43-.065.804-.659.7-1.144.78-.704-.983-1.32-1.507-2.288-1.106-.259.58-.503 1.202-.709 1.905.157.935-.056 1.09.174 1.848.71.416 1.508.91 2.076 1.294.086.017.055-.113.02-.249 1.997.278 1.952-2.484 3.461-3.516.33-1.666 1.237-2.136 1.643-3.61l.226.003c.218-.872.867-1.299 1.222-2.31.03-.107.121-.05.19-.056.882-1.795 2.25-3.127 3.591-4.648m-2.355 7.284c-.354.61-.15 1.902-.624 2.435-.037.712-.222.988-.14 1.637l-.217.059c.034.085.098.04.153.038-.201 1.496-.237 2.91.255 4.618.993 3.536 5.823 6.753 8.543 5.755l.095-.254c-1.847-1.214-3.397-.574-5.367-2.517.46-.036.948.027 1.44.15l-.088-.605c-.632-.642-.982-.921-1.446-1.403-.185.119-.43-.148-.666-.33-1.051.15-2.032-2.018-2.231-3.147-.15-.351-.09-1.151-.076-1.69-.083-1.286.432-2.993.528-4.393-.038-.172-.04-.36-.16-.353m46.774 19.038c.175-1.417.098-2.707.326-4.448-.012-.788-.104-1.476.018-2.634-.092-1.745-.525-3.76-.775-5.911-.12.026-.017-.37-.167-.286-.283-2.311-1.373-5.23-2.119-8.073-.585-2.426-.896-4.258-.637-5.79-.144-1.128-1.108-2.978-2.115-3.52-.627.085-.606.665-.427 1.442-.677-1.6-1.293-3.144-1.258-4.253-.43-1.47-2.284-2.56-2.925-2.083-.064.046.052.289-.15.167.281 1.322 1.21 2.905 2.232 4.708.504 1.763 2.011 3.764 2.685 5.737 1.932 4.019 3.333 7.228 4.065 11.099.324.694.434 1.507.508 2.555.858 3.676.85 7.7.32 11.79.148.16.276.027.385-.404.012 1.938-.937 4.639-1.472 6.8.524-.38.708-1.375.93-2.157.28-.924.621-1.805.861-2.74.193-.907.214-1.921.676-2.546.033-.138-.079-.118-.137-.155.365-2.43.836-4.08 1.76-5.8.775-1.45 1.553-2.54 1.182-5.493-.136-.181-.222.55-.226-.008-.222.24-.413.558-.706.6-.105.743-.419.92-.614 1.408.068-1.98.412-3.291.014-5.59-.202-.63-.436-1.17-.652-2.037-.538-.438-.757-1.862-1.329-2.268-.07-.54-.262-.422-.35-.85l-.352.084c.204 1.159.163 2.895.491 4.034-.286.29-.52.772-.782 1.14.004.152.04.364-.027.385-.006.304.226.024.2.375.248-.262.366.039.486-.217 1.696.36 1.536 3.952 1.033 7.449-.244 2.423-.4 4.349-.856 6.548.06.214.083.47-.096.942M415.391 51.26a.537.537 0 0 0-.49.397c-.013.04.09.228.082.277-.037.263-.283.504-.314.68-.007.048.097.244.086.286-.044.174-.218.183-.259.387-.134.676.078 1.767-.344 2.088.254.43-.145.209.144.627l-.165.072c.326 1.138-.08 1.93.195 2.875-.117.033-.212.083.008.393a1.737 1.737 0 0 0-.128 1.326c-.266-.055-.113.293-.113.368-.005.827-.795.265-1.384.198-.87-.146-1.392.399-2.086.887.17.324.247.864.008.99 1.537 1.952 3.615 3.338 4.032 2.344.793 1.034.581 1.52.006 1.92-.426-.123-.887-.31-1.179-.205-1.122-.444-2.789-2.465-3.657-2.433.836 1.356 2.063 2.067 3.248 3.459.007.507-.343.988.605 1.789 1.331.579 1.936.06 3.022.276.33-.397.678-1 .931-1.274-.06-.223-.31-.517-.047-.62-.465-.893-.594-1.663-.586-2.368-.79-1.355-.81-2.556-1.452-4.136l.141-.113c-1.267-3.455-.867-6.473-.498-9.574.25-.041.184-.434.275-.646zm23.63 17.191c-.179-.227.686-.474.957-.784.734-.866.593-1.973-1.339-1.177-.598.188-.708.453-1.466.706-1.143 1.255-2.799 2.36-5.64 2.571-1.741-.044-3.648-.33-4.779-.793-.244-.095-.325-.203-.511-.302-2.992-.95-4.093-2.61-5.941-4.26-.172-.12-.173.082-.419-.175-.084.12.325.396.059.46 1.85 2.23 4.029 3.998 7.309 5.14.228.26.621.29.87.491 3.526 1.241 10.012.7 13.146-1.92 1.41-1.09 2.159-1.748 2.971-3.02.164-.239.031-.306.128-.582.121-.373.714-1.08.789-1.49.242-1.192-.186-2.52-1.459-2.197-1.663.997-2.368 2.581-2.533 3.428.759.995.417 2.551-2.142 3.904" fill-rule="evenodd"/><path d="M416.674 62.735c-.583.171.248 1.405.743 2.071l.062.291c.062.126.345.365.403.462.151.26.146.463.333.752.47.732 1.213 1.581 1.948 2.23.351.348.69.618 1.167 1.07.288.27.253.432.911.8.002.234.864.595.651.798 1.118.36 1.844 1.056 2.903 1.53-.31.394.845.757.555 1.154.445.094.758.573 1.142.766 1.7.56 4.867.506 6.094.99.228-.02.452-.042.484.01.637-.054 1.126-.148 1.427-.272-.55-.358-.857-.807-1.8-1.01 3.572-.35 5.798-.996 8.928-2.605.156-.34 1.163-.937.491-.982-.159.145-.289.213-.403.17-2.583 1.918-7.286 2.694-10.587 2.34-1.307-.174-2.842-.218-3.418-.663-.978.132-2.079-.727-3.254-1.092-2.1-.95-4.378-2.642-5.42-3.964-.934-.795-1.464-1.72-1.8-2.432-.997-.94-.872-1.349-1.307-2.18a1.115 1.115 0 0 1-.253-.234m-7.111-21.697c.117-.344.007-.356.126-.697-.319-.292-.695.224-.787-.199-.182.261-.708.282-.7-.175-.598-.15-1.116-.424-1.109-1.488-.906.073.476-3.895.118-4.634-.067-.116.01-.69-.06-.936-.059-.199-.314.053-.229-.57l-.689-.338c-.524.926-.55 1.692-.536 2.254-.53 1.708-.611 2.727-.701 4.05.231-.095.234.406.434.12.063.114.025.383-.038.694-.186.194-.361.54-.571.425-.949.888-1.014 4.05-1.902 4.36-.026.468-.136.522-.192.835-.004.37.108.437.088.858.29.041.664-.137.745.456.309-.28.587-.669.942-.772.554-1.53 1.222-3.81 2.109-4.51.905.098 1.739.567 2.395.264.085-.026.061.11.032.251.166-.16.315-.44.525-.248m59.803-5.199c.509.772.92.499 1.39.817.083-.613.455-.918.444-1.48-.237-.525-.294-.836-.542-1.302-.663-2.623-3.208-5.89-5.305-7.705-3.171-2.852-6.586-4.147-9.127-4.925-.012.189.345.206.32.413 1.187.44 2.086.983 3.252 1.59.514.28 1.027.35 1.55.665.919.565 2.914 1.895 3.88 3.064.354.403 1.174 1.339 1.464 1.91.473.928-.036 1.278.279 2.28.444 1.296 1.382 2.759 2.395 4.673" fill-rule="evenodd"/><path d="M408.24 47.444c.015-.214-.044-.252-.024-.479-.114.066-.238.1-.246.478.092.092.173.091.27.001m38.022-11.208c.322-.03.339.355.57.146-.164-.209-.41-.2-.57-.146m1.017-.956c-2.508-1.167-4.67-1.954-7.89-2.54-.002.025-.058.042-.065-.01-.192-.28-1.425-.12-1.914-.248-.17-.045-.323-.169-.448-.182-.543-.07-1.401-.186-1.875-.158l-.555.085c-.907.035-1.747-.178-2.723.156-.561-.17-1.255-.042-2.015.208-.758.011-1.57.203-2.407.482-.477-.118-1.31.183-1.863.264-.097.013-.28.146-.367.16-.547.087-1.413-.087-1.68.3-1.105-.25-2.515.49-3.59-.005-.31.284-.491-.155-.8.101-.714-.493-1.393-.424-2.197-1.199-.047-.558-.128-.816-.5-1.15.167-1.289.168-2.36 1.078-3.943.68-.83 1.977-2.142 3.118-2.783.23.08.688-.213.91-.125-.222-.22-.402-.536-.616-.664.589-.46.319-.596-.046-.473 1.03-.724 1.984-1.18 2.43-1.07-.101.321.02.6-.251.95.372-.029.574.164.98.085 1.052-.272 2.96-1.177 3.523-1.86 1.653-.78 1.398-1.49 1.747-2.168-.317.105-.157-.13-.402-.077-.646.924-2.006 1.903-4.072 2.922-.241-.296-.672-.405-1.328-.235.2-.35-.805-.365-.27-.983-.523.2-.194-.44-.655-.406-.342.147-.415.221-.494.406.623-.01.28.363.437.737-.7.592-1.174.563-1.79.856-.962.895-2.21 1.428-3.071 1.906-.317-.06-.598-.194-1.103.097-4.404 4.232-4.455 7.388-4.605 10.052.247.447.116 1.551.705 1.47.04-1 1.192-3.797 2.11-3.565-.141 1.044-.553 2.246.012 2.766-.925 1.916.453 1.967.888 2.348.156-.91.217-1.862.308-2.648.442-.91.758-.773 1.099-.878.55.718.267 1.771.389 2.884l.685.345c.095.077.18-.3.276-.162 2.435.06 4.837-1.608 7.333-2.075.11-.127.169-.043.288-.203 2.239-.542 4.365-1.295 6.904-1.787 3.677-.729 9.78.097 14.114 2.442.149.156-.124.122.127.291.158.085.177-.153.31-.127 1.238.585 2.863 1.642 4.207 2.386 5.43 3.8 9.086 9.978 11.313 16.03l-.021.437c.515.762.624 2.23.997 3.048-.067.827.267 1.082.16 1.975.22.164.106.736.278.906-.094 1.781.176 3.036.089 4.658-.002 1.436-.251 3.021-.264 4.142-.322 1.461-.65 2.796-.9 4.01-.233.335-.108.418-.345.754.098.085-.068.357-.022.477-.295.534-.43.878-.466 1.19-.506.766-.451 1.2-1.012 1.998.042.036-.01.282-.045.365-.382.965-1.393 2.08-1.57 2.877.493-.648 1.209-1.716 1.735-2.34.926-2.026 2.08-4.344 2.475-6.322.204-.435.507-1.006.349-1.216.405-1.664.868-3.279.753-4.643.17-.068.07-.34.202-.563.044-2.026.223-4.606-.18-6.476-.12-2.599-.634-4.824-1.118-7.5-.314-.852-.544-1.709-.84-2.888-.43-.905-.716-2.022-1.192-2.972-.186-.398-.38-.64-.54-1.01-.303-.604-.651-1.323-1.002-1.998-.438-.755-1-1.359-1.423-2.124-.701-1.028-1.323-2.322-2.34-3.65-2.025-2.745-4.605-4.812-6.58-6.883-.746-.502-.848-1.115-1.595-1.396.068-.08.057-.16-.077-.238-2.293-1.683-4.218-2.947-5.231-4.515-.126.23-.015-.188-.28-.072-.052-.164.32.02.319-.103-.206-.49-.28-.976-.623-1.408.365-.089-.036-.275.1-.532.087-.283.695-.412.826-.915.908-.137 1.61-.439 2.506-.604 1.87.294 3.69 1.256 3.839 1.982-.344-.047-.05.007-.073.166-.301-.01-.66-.02-1.023-.065-2.075-1.132-4.107-.837-4.583-.143-.717 1.025.293 2.255.979 3.103.385.061.522.43.75.4-.401-.939-1.04-1.63-.405-2.547.666-.525 1.836-.432 3.238-.195 2.155.93 2.857 2.058 2.597 2.674-.603.211-1.394.227-1.648.592-.085.122.073.305.053.53 0-.003-.202-.036-.211-.004-.111.441.544 1.027.489 1.451 1.173.74-.313 1.011.268 1.652.307-.01.196-.328.48-.444.692.467 1.014 1.242 1.812 1.568-.543-.556-.476-1.045-1.188-1.552-.21-.592.218-.902.712-1.098 1.35.116 2.53 1.49 2.973 2.442.1.242.143.33.192.488.046.138.228.35.249.415.022.067-.136.066-.122.132.032.142.235.344.278.504.093.354-.052.624.019.881.036.112.205.234.246.38.083.266-.027.232.037.45.077.255.217.585.324.772 1.402 2.457 3.494 4.961 4.73 7.752 1.465 3.422 3.12 6.222 3.583 9.74.059.004.068.118.14.091.19 1.335.347 2.635.694 3.68-.093 1.018.206 1.355.13 2.317.56 2.87.278 6.207.104 9.27-.774 3.298-1.4 6.423-3.128 9.682.049.067.246.045.016.281-.103.136-.142 0-.265.21-.66 1.322-1.682 2.672-2.787 3.91-.522.97-2.305 2.315-2.176 2.995-.714.913-.776 1.46-1.231 2.223.027.065.135.107.02.212-.211.108-.123.301-.346.492-.505.293-.75.158-1.113.222-.028-.085.165-.092.155-.173-.711-.245-1.51-.183-2.345-.453-.414.222-.733.31-.977.292-1.846.778-3.153.58-4.533.82-.107-.216-.361-.257-.754-.133-.871-.394-1.642-.826-2.26-1.405-.23-.499-.317-.873-.537-1.29.25-.11.078-.503-.022-.764.62-.846 1.55-1.686 2.723-2.43-.027.217.342-.204.315.015-.16.693-1.322 1.35-1.102 1.785.09.177.074.002.015.243-.112.461.128.556.145.935.1.004.32-.143.316-.005-.404.22.11-.036.06.121.172.08-.264.168-.092.247.32.033.176.42.737.39l.122.242c1.06.087 1.82.631 3.394-.139.69-.012 1.679-.229 2.805-1.037-.101-.107-.022-.32-.125-.529 1.797-1.573 3.078-2.872 3.854-4.454-.052-.544.515-1.415.485-2.02-1.01 1.042-2.168.078-1.202-1.228.394-.2.672.012 1.187-.59.144-.326.115-.576.058-.812-.89.376-2.03 1.082-2.393.113.977-1.103 1.548-1.58 2.375-2.563-.253-.367-.626.006-.883-.322-1.496.347-3.268.96-4.652.672-.335-.07-.533-.338-.965-.268l-.585-.564c-.071-.097-.216.195-.276.043-.515-.302-.747-.924-1.006-1.177-.126-.127-.017.092-.051-.147-.057-.372-.425-.614-.451-.992-.021-.266.273-.65-.006-.813.17-.988.762-2.226.616-3.168.154-.25.342-.392.469-.582.573.22 1.215.383 1.44 1.02.224.658-.454 2.402.246 2.804.237-.279.19-.685.333-.994.423-.893.902-.85 1.303-.925-.024.2.106.128.27.433-1.337 1.977-.211 3.45 1.362 3.51l.144-.198c.8.235 1.656.172 2.55-.05.05.034-.054.146-.027.191 1.296-.262 1.72.962 2.237 1.983-.04.543-.084 1.094.125 1.51-.24.476-.142.77-.057 1.07-.448 1.225-.592 2.098-1.441 3.538.11.584-.978 1.531-.323 1.863 1.419-1.047 2.586-2.857 3.468-4.598.682-1.418 1.11-2.43 1.505-3.699-.05-.05-.16-.057-.102-.182.408-.349.248-1.143.754-1.89-.084-.665.333-1.887.202-2.56.425-1.74.113-3.106.31-4.816-.41-.293-.177-1.353-.646-1.642-.001-.49-.151-.865-.303-1.2-.392-.845-.73-1.69-1.395-2.175.022-.143-.003-.22-.052-.268l-.266-.048c.05-.313-.208-.213-.205-.46-.021.101-.043.193-.114.15-.932-1.3-2.451-.895-3.716-1.086-.093-.268-.401-.279-.681-.324.053-.195-.248-.278-.504-.287-.481-.397-.681-1.045-1.213-1.376l-.12-.41c-.888-.734-.815-2.254-1.406-3.274.079-.803-.368-1.634-.06-2.286-.202-1.337.652-1.976.975-2.932.233-.048.378-.154.468-.3.33.167.627-.153.89-.187.796-.097 1.538.657 2.097 1.283.099.548.38.952.348 1.452-.166.166-.27.4-.31.7-1.347.837-1.766-2.23-2.917-1.207-.097.187-.17.39-.393.468-.244.63-.582 1.173-.513 1.99.089 1.516.807 3.532 1.72 4.363.128.387.357.651.732.694.04.481.604.36.805.665.45-.039.92.032 1.502.03.066 0 .094.171.156.173.304.01.909-.053 1.098-.026.247.354.674.484 1.09.627 1.16 1.222 2.139 2.808 2.77 4.623-.656-7.23-3.237-14.008-7.684-18.169-.296-.007-.561-.323-.738-.412-.25.015-.131.25-.237.348-1.048.723-1.86-.36-2.831-.184-.23-.214-.221-.417-.28-.668.162-.096.148-.26.163-.398-.612-.189-1.054.372-1.675.318-.165-.167.04-.265.088-.417.008-.022-.07-.152-.062-.167.028-.06.164-.077.214-.165.092-.165.084-.466.152-.567.209-.31.6-.413.809-.649.058-.046.12.127.179.097l.212-.167c1.144.23 2.506 1.098 3.502 1.71-1.138-1.108-2.661-2.545-4.108-3.235-.324-.439-.452-.27-.745-.644-1.63-.833-3.404-1.574-4.891-2.135-3.412-1.193-7.576-1.99-10.28-1.793a12.86 12.86 0 0 0-2.396.294c-2.461.443-5.041 1.364-7.118 3.071-.047-.025-.095-.088-.142-.032-.542.528-1.081.742-1.436 1.327-.092-.068-.17.07-.256.076-1.763 1.64-3.378 3.39-4.463 5.876-.591 1.06-1.362 2.053-1.655 3.296-.155.32-.421.488-.442 1.021-.704 1.29-.847 2.37-1.05 4-.31.956-.397 1.871-.066 3.154-.124.477-.088 1.362.204 1.994-.106.032-.133.108-.123.207 1.149 4.266 3.91 9.06 10.115 11.916 1.307.4 2.174.92 3.542.967 4.364 1.21 9.812-.27 13.305-2.963.527-.498 1.847-1.625 2.464-2.243-.196-.13.476-.668.708-.969 1.146-1.793 1.876-3.684 2.375-5.514-.087-.016-.023-.166-.101-.192.452-1.143.187-1.346.153-2.229-.148-1.436-.351-2.808-1.055-3.334.042-.606-.45-.53-.54-.994-.763-.38-1.554-.828-2.415-.779-.453.02-1.195-.006-1.642.154-.032.012-.091.19-.106.196-.115.05-.28-.05-.405-.002-.11.057-.286.332-.513.43-.164.08-.354.03-.454.084-.1.055-.154.255-.242.316l-.234-.007c-.205.094-.306.296-.445.407.009.4-.255.643-.555.997.028.6-.262 1.156-.843 1.48-.541.086-1.118-.089-1.533-.674-.007-.24.034-.47-.104-.673.205-1.578 1.673-2.237 2.77-3.126.37-.013.699-.092.899-.413.803.011 1.352-.56 2.14-.483.088-.168.155-.158.207-.214 1.127-.023 1.289-.06 2.299.006.105.028.054.305.2.267l.406.008a.507.507 0 0 0 .514.295c.227.241.427.543.754.63.086.341.204.637.48.657.94 1.984 1.69 4.35.78 7.561.109.038.03.241.08.33-.491.907-.081 1.13-.812 2.02.14.28-.76 1.211-.614 1.485-1.7 2.761-4.38 5.627-8.423 7.03-1.375.826-4.343 1.34-6.708 1.34-3.701-.212-8.381-2.005-10.578-3.703.006-.056.076-.104-.048-.18-1.658-1.129-2.638-2.223-3.338-3.48-.603-.596-.554-.962-1.24-1.59.127-.123-.135-.355-.346-.627-.41-1.698-1.512-3.448-1.536-5.137-.292-.995.006-1.513-.3-2.493l.166-.073c-.255-1.22.364-1.858.183-3.114.42-.018.038-.903.419-.948-.124-.56.128-.952.36-1.143.778-2.847 2.242-4.824 3.705-7.47.158.126.172-.216.288-.226.398-.845.993-1.105 1.438-1.925.827-.7 1.627-1.676 2.706-2.364 1-.926 2.053-1.455 3.098-2.135 2.195-.856 4.74-1.809 6.776-1.978.409.004.788.08 1.153.053.872-.018 2.083.051 3.259.178 1.197.212 2.475.383 3.897.77 1.135.304 2.294.778 3.396.99-.39-.178-.782-.432-1.391-.71-7.85-2.984-14.557-1.825-20.277 2.116.05.088.313.101.138.268-.157-.049-.081-.183-.214-.242-2.761 1.403-5.502 3.617-8.105 5.298-.814.121-1.488.521-2.275.713-.05-.185-.632-.029-.847.17-.06-.01-.015-.182-.06-.214-.668.537-1.6.055-2.223.87-1.72.753-3.356 5.006-1.644 9.654l-.304.082c-.285-.876-.654-.919-.913-1.646.175.523-.233.067-.135.428.697 2.768.623 4.684 1.283 6.65-.105-.01-.277-.459-.353-.29-2.02-4.538-2.513-8.17-2.016-11.302-1.658 1.118-.888 10.558 2.473 12.47l.279-.149c.633 1.187.382 1.18.048 1.411.348.863-.356.893.244 1.87-.375.06.173.785-.326.76-.396-.527-.652-.612-.983-1.302-.023-.222.03-.37-.168-.762-.725-1.354-1.562-2.295-2.184-3.549-.168-.46-.2-.818-.341-1.297-.303-1.029-.686-2.009-.902-2.986-.32-1.1-.122-2.633-.084-3.396.093-1.29.1-1.95.306-2.616.004-.012-.031-.216-.02-.283.142-1.032.705-1.263.933-2.363.482-.416.825-1.086 1.266-1.787 1.048-.664 1.902-1.595 2.945-1.718 2.092 1.288 5.007.194 7.479-1.013-1.806.555-3.856 1.244-6.121.275.01-.438-.221-.3-.492-.453.018-.45-.157-.34-.443-.455-.184-.39-.387-.758-.745-.912-.272-1-.91-1.406-.972-2.585-.47-.552-.456-1.875-.413-3.055.016-1.102.085-2.083.26-2.997.062-.37.399-.979.532-1.423.102-.342.046-.543.163-.87.082-.196.316-.438.443-.7.15-.31.157-.632.314-.969.608-1.425 1.812-3.108 2.845-4.22l.286-.52c1.07-1.028 3.125-3.183 4.723-4.212-.09-.094.284-.315.393-.462 2.364-1.314 4.577-2.477 7.697-3.494.922-.106 2.138-.4 3.56-.799-.081.378.887.08 1.35.115.305.016.345.126.606.131.325.008.718-.09 1.14-.08 1.038-.005 1.948.286 2.856.406 1.978.258 3.035.836 4.518 1.278l.62.086c.4.156.445.393.815.575.51.25 1.21.522 1.754.774.848.358 1.746.831 2.575 1.273.005.071-.082.15.072.206.366.103.48.233.898.334 1.826 1.391 3.957 2.83 6.91 4.774.278.247.242.44.63.706.096-.068-.123-.19.023-.25 1.056.4 2.437 1.026 3.465 2.166.042.346.858 1.194.19 1.181-.408-.093-1.295-.58-1.937-.928 1.255 1.51 3.273 3.51 4.908 5.782.83 1.13 1.592 2.471 2.442 3.723.956 1.327 2.613 3.617 3.41 4.381.72.715 1.359 1.242 2.006 1.13.085.361.192.102.284.262.453 1.191 1.113 1.415 1.335 2.36-.101.642-.823.89-1.297.574.238 1.2 1.045 1.13 1.439 1.992.288-.408.712.54.885-.169.079.436.529.442.444-.084 1.005.434 1.823-1.42 2.048-3.117.086-.007.134.402.225.34.488 3.182.34 5.862-.21 7.638-.118.472-1.108.488-.731.764-.3.195-.403-.42-.541.02-.225-.504-.85.001-.89-.666l-.496.026c-.453-.593-.89-1.178-1.402-1.585-.004-.439-.18-.206-.184-.646-.37-.196-.603-.93-.951-1.19-.304-1.04-.793-1.572-1.254-2.359-.383-1.035-.776-1.856-1.298-2.568-2.816-6.273-7.651-12.94-11.625-17-.085.158-.132-.1-.323-.096.193-.116-.233-.489-.516-.8.178-.017.562-.125.382-.402-.113.151-.067-.03-.188-.117-.34.116-.067.251-.448.307-.613-.354-.564-.6-.867-.904-1.932-1.393-2.963-2.665-4.916-3.612l.059-.17c-1.94-.969-2.905-2.06-5.145-2.73-1.313-.949-3.3-1.592-5.36-2.122-.421-.358-1.463-.537-2.292-.704-3.082-.653-8.367-.299-12.423 1.713-2.174 1.002-4.887 2.584-6.676 4.36-1.682 1.587-3.393 3.744-4.387 5.293-.163.252-.124.391-.266.67-.161.312-.505.726-.663 1.042-.024.048.056.124.028.19-.461.997-1.186 2.492-1.312 3.318-.042.237.1.288.072.5-.034.292-.247.74-.276 1.043-.08.673.03 1.117-.116 1.813.052 1.776.767 3.244 1.276 4.413.526.25.663 1.298 1.407 1.476-.01.614.729.238.782.762.04-.183.105-.227.183-.169.678.744 1.379.483 2.207.287-.01.227.47.078.634-.116l.39.114c.107.06.12-.335.239-.215l.259.08c.466-.205 1.054-.476 1.51-.606.073-.022.327.208.339-.147l.212.078c1.235-.882 2.512-1.286 3.813-2.294 1.012-.364 2.088-1.19 3.202-1.77.045.03.086.095.143.043.147-.229.556-.279.49-.443-1.15.598-2.344.794-3.571 1.558-.772 0-1.316.642-2.136.582-.552.534-1.08.23-1.617.834-.481.031-1.007.164-1.456.503-.296-.233-.692.115-1.024.186-.368.08-.685-.178-1.082.213-.866-.49-1.955-.225-2.773-.954-.084-.077-.134-.118-.226-.308-.07-.014-.126.252-.2.162-.056-.594-.218-.734-.581-.92-.163-.344-.191-.844-.564-.958-.003-.26-.038-.764-.211-.466.143-.362.104-.818-.142-.448.28-1.042-.351-1.193-.016-2.293-.907-3.6 3.226-12.694 12.51-16.555 1.858-.826 4.513-1.68 5.855-1.805.54-.06 1.089.014 1.7.011 1.664.005 3.226.053 4.272.453.249.023.488.05.796.05.553.357 1.875.467 2.275.94.478.01.336.217.833.221.55.87 2.579 1.597 2.184 2.806.076.082.34.12.306.228-.181.52.065 1.3-.431 1.622.348.38-.258.4-.221.924-1.616 1.205-3.744 2.574-8.158 2.501-.091-.256-.66-.083-.921-.188-.173-.345-.342-.382-.45-.58.267-.945 1.888-1.652 4.007-1.94.418-.3 1.017-.539 1.233-.922-1.906-.145-3.817.034-3.777-1.042.144-.096.384-.172.298-.32 1.45-.586 3.473-.693 3.773-1.494.19-.483-.138-.869-.766-1.276-1.274-1.266-5.091-1.347-8.493-.877-3.184.822-5.904 1.711-8.288 3.482-1.833 1.361-3.303 2.898-4.81 4.582-.506.89-1.04 1.83-1.854 2.96.017.71-.861 2.042-.728 2.674.977-1.274.61-1.715 1.65-2.926-.244-.023.29-.49.136-.565 2.593-4.264 7.992-8.462 12.535-8.805.765-.067 1.562-.01 2.593-.058.228.35.464.507.987.718.106.2.13.677.512.52-.327.242-.08.253.097.393-.365.232-.235.514-.168.79-.21.245-.566.474-.52.744-.23.095-.457.241-.611.353-.165.124-.506.557-.526.57-1.626 1.105-4.402 2.416-6.075 2.9-.312-.023-.501-.109-.795.04.302.553.238 1.157-.601 1.986-.152.16-.563.35-.71.51-.941.977-1.627 1.75-1.725 2.548.37.151.08.606.389.784.107-.103.17-.08.273-.17.464-.878.949-1.725 2.01-2.375.14.216.57-.115.618.264.063.345-.327 1.12-.248 1.537-.897.915-.47 1.78-.066 1.974-.164.304.224.49.42.41-.102.286.366.166.609.23.656.143 1.583.33 2.295-.098-.237-.339-.235-.395-.58-.69.199-.153.152-.265.318-.412.459-.19.869-.335 1.396-.658.715.008 1.463.326 1.846.66l.23.387 1.288.366c3.933-.547 8.155-.306 12.85.863.122.202.652.135 1.042.294 1.479.516 2.926.992 3.973 1.63.503.34 1.255.46 1.879.924 1.326.83 2.54 1.442 3.529 2.34 1.724 1.505 3.424 3.02 4.765 5.176-.228.153-.47-.302-.645-.528-.68-.846-1.331-1.615-2.071-2.294-1.283-1.08-2.701-2.458-4.29-3.306-1.07-.7-1.821-1.19-2.908-1.565.08-.09-.057-.173-.158-.258-.094-.025-.1.143-.208.083" fill-rule="evenodd"/><path d="M445.856 65.01c.487-.237.956-1.213 1.201-1.88.034-.095-.1-.11-.063-.207.051-.137.295-.385.339-.496.129-.38.254-1.19.416-1.841-.11.009-.241.254-.208.005-.132-.02.327-.525.193-.544.309-1.62-.167-3.012-.655-4.32-.285-.111-.582-.212-.483-.74-.255.466-.817-.386-1.435-.392-.386-.013-.924.073-1.266.133-1.072.232-1.924.649-2.864 1.713.005.084.133.105.028.248.512-.013 1.012-.602 1.6-.446-.832 1.515-1.326 2.882-.064 3.226.093-.177.464-.244.641-.148.641-.355 1.19-.68 1.672-.488.258-.21.877.05 1.141.349.164.185.094.565.168.827.183.7.283.966.182 1.71-.026.162-.04.24-.069.52-.02.17-.169.28-.256.53-.098.276-.056.579-.14.807-.267.832-1.031 1.57-1.38 2.194l.23.278c.133-.116.264-.232.315-.207-.242.387.342-.051.012.403-.261-.002-.391-.227-.726-.097-1.712 2.194-5.071 4.14-8.329 4.819-.383.066-.954.29-1.426.249-.031-.003.006-.183-.016-.18-.263.028.023.149-.115.193-.064.113-2.93.187-3.425-.01-1.266-.228-2.596-.385-3.797-.998-1.894-.781-3.971-1.63-5.144-2.845-.521.23 1.233 1.249 1.637 1.806 1.41.464 2.583 1.269 3.972 1.74 3.208 1.389 10.768 1.147 14.738-2.148.016-.09.341-.237.139-.285.995-.41 1.763-1.093 1.711-1.595.181-.084.294-.051.574-.298-.069-.197 1.25-1.238.764-1.241.329-.22.333-.23.188-.343m4.324-46.154c1.57.822 4.063 1.894 5.544 2.501.166-.067-.086-.22-.219-.347.068-.095.472.235.43 0-.23-.088-.416-.045-.674-.308-.125-.067-.082.003-.022.04-.696-.182-2.279-1.07-2.993-1.148-.497-.476-1.7-.938-2.066-.738m2.397 43.453c-.2.7-.597 2.13.14 2.232.309-.58.699-.945 1.089-1.232.062-.055.279-.09.34-.16.028-.031.038-.175.069-.197.395-.284.76-.288 1.17-.47.11-.051.182-.265.25-.296.24-.11.528-.084.827-.031.062-.436.6.134.73-.16.096.102.458-.022.334.266.2-.055.219-.117.3.097.11.039.073-.037.097-.132.39.033.384.413.806.422.175.587.938.659.99 1.378l.254.09c.882 1.607 1.566 3.296 1.515 5.621l.16.084c-.17.901.285 1.222-.207 2.292.165 1.603-.706 3.728-1.824 5.882-.213.867-1.531 2.246-1.656 3.082.572-.127 1.7-2.393 2.166-3.197.52-1.033 1.119-1.833 1.016-2.3.924-1.705.79-3.053 1.1-4.467-.075-.825-.207-1.737-.193-2.672l-.164-.076c.093-.815.005-1.449-.295-1.94-.352-2.166-1.295-3.47-2.204-5.098-.313-.131-.548-.345-.67-.672-.566-.202-1.073-.465-1.463-.835-.203.238-.36.118-.483-.114-.125-.095-.166.077-.23.17-.626-.171-1.336-.43-2.064-.297-.008.002-.023.12-.033.13-.067.079-.17-.071-.22-.055-.084.026-.105.18-.193.224-.08.04-.188-.085-.262-.07-.01.003-.071.172-.09.18-.07.036-.192-.096-.26-.072l-.567.24c-.194.073-.254.22-.37.286-.11.067-.343.05-.56.215-.722.535-.78.818-1.295 1.469-.282.288-.767 1.274-.606 1.919.316.704 1.27.629 1.75-.248.263-.477.344-1.305.806-1.487m-3.558-29.454c.237-.069.244-.628.432-.848-.323-.044-.423.313-.686.37.222.165.349.325.254.478m-.53-.012c-.005.116-.294.231-.033.351.062-.207.285-.248.54-.3-.246-.16-.29.06-.507-.05m14.457 20.298c-.046-.733-.236-1.215-.475-1.539-.877-3.048-2.441-5.185-4.16-8.032-1.011-1.224-2.165-2.737-3.095-3.955-.233-.139-.458-.354-.676-.619-.625-.788-1.314-1.17-1.51-1.443-.82-.98-2.522-2.34-3.718-3.354-.284-.209-.55-.639-.792-.54.169-.188-.043-.139-.071-.31-.042.057-.073.14-.196.037-.695-.584-.922-.865-1.711-1.22-.081-.31-.621-.796-1.096-.878.121-.187-.236-.22-.364-.328-.841-.762-1.495-1.513-2.289-2.219.046-.122.068-.238-.185-.283.047-.412-.233-.748.014-1.209.191-.023.34-.083.332-.286 2.095-.419 3.796 1.763 2.812 2.422.545.585.725 1.436 1.705 1.932-.245-.572-.907-1.214-.256-1.737.955.02 2.417.868 2.311 1.676.111.2.292.111.421.103-.074.137-.135.297-.329.221.175.188.278.154.392.296-.112.178.127.372-.062.544.278.25.283.467.373.72 1.865 2.745 5.237 5.41 7.501 8.76 1.38 1.971 2.557 3.874 3.388 5.801 1.288 2.253 2.451 5.107 2.877 7.891-.625-.413-.653-1.853-1.141-2.45" fill-rule="evenodd"/><path d="M449.136 81.14c.097-.267.332-.557.203-.78.622-1.58 3.444-4.417 5.387-5.817.64-.289 1.377-.506 1.808-.684.113-.507-.464-.007-.64-.268-.55.311-1.182.683-1.775.886-.735.643-1.603 1.122-2.57 1.855-1.083.96-2.004 1.917-2.899 2.795-.469.663-.74 1.243-1.126 1.817 0 .372.182.731.085 1.116 1.031.896 2.411 1.521 4.738-.026.501-.952.758-1.718-.079-2.305.116-1.19-1.983.444-3.132 1.411m-17.425-15.885c-.219-.217.287-.383.477-.494.132-.733.301-.93.773-1.527-.252-.044-.32-.287-.464-.43-1.029-.18-1.438.103-2.09.234-.302-.17-.862-.443-1.08-.623-.859-.043-.777 1.103-1.09 1.495-.174.015-.192.184-.487.082-1.037.986-3.653.08-5.585-1.371-2.227-1.764-3.052-3.964-3.728-5.92l-.465-2.692c.156-1.004.054-2.061.39-2.877-.249-.811.471-1.51.32-2.613-.449.008-.385.787-.532 1.059-.496.902-.31 2.156-.602 3.053.033.56.033 1.102-.179 1.439.283 1.906.422 3.724 1.358 5.62 1.395 2.886 5 5.79 8.221 6.46.631.162 1.445.383 2.068.45.493-.024.826-.24 1.723-.084 1.768-.07 2.967-.764 4.345-1.38 1.13-.793 1.613-2.005 1.86-2.972-.127-.336-.102-.657-.362-.924-.498-.052-.918.217-1.518.442-1.29.903-1.772 2.929-3.353 3.573m26.316 19.466c-.173.17-.144-.084-.233-.09.075.24-.402.687-.357.941.58-.084 1.159-.93 1.749-1.25 1.517-1.698 3.865-4.483 4.842-6.574 1.439-2.166 3.064-4.459 4.29-4.11.436-.223 1.413-2.006 1.468-3.11.015-.403-.257-.382-.141-.8-.531-.515-1.098.315-1.673.743.858-1.573 1.779-2.76 2.668-3.639.562.028.525.754 1.126.74.253-.707.785-.995.813-1.949 1.027-.428 1.628-4.265.233-3.534-.035-2.496-1.167-.04-1.793.313-2.132 3.88-4.877 10.022-7.525 14.7-.615 1.028-1.073 2.32-1.975 3.305-.73 1.543-2.325 3.087-3.492 4.314m7.923-48.358c.085.696.779 1.746 1.236 2.35.15-.059.35-.062.45-.209.14-.203.248-1.103.228-1.629-.003-.064-.164-.396-.171-.56-.048-.542-.106-1.577-.343-2.366-.051-.173-.323-.679-.352-.76-.575-1.44-1.32-3.666-2.661-5.247-.83-1.1-2.051-1.97-2.883-2.834-1.833-1.263-4.5-3.187-6.01-3.287.047.24.358.53.37.761 1.184.24 3.522 2.223 4.184 2.905.756 1.226.775 2.156 1.127 3.204.283.363.584.753.484.938.357.285.55.736.9 1.148.824.916 1.394 1.536 1.984 1.735.15-.195.367-.142.665.226.192 1-.117 1.731-.343 2.508.268.683.878 1.472 1.135 1.117m-10.491-14.108c-.123-.254-.563-.567-.252-.74-.991-.664-2.638-1-3.493-1.626-.215-.083-.473-.21-.488-.085-.293-.372-1.385-.612-1.662-1.034-2.357-.82-3.045-1.838-5.308-2.374-.258.288.76.39.61.68.809.163 1.463.699 1.993 1.033 2.524 1.172 6.062 3.04 8.6 4.146" fill-rule="evenodd"/><path d="M456.435 19.941c.142.097.276-.136.372.124.201.048.32-.008.384-.133-.11-.24-.522-.116-.414-.31-.386-.204-.295.174-.535.147.13.071.186.127.193.172m-1.743.266c-.513-.215-1.075-.295-1.207-.355.001 0-.75-.51-1.177-.679-2.598-1.01-5.387-2.224-7.63-2.979-.38-.27-1.48-.612-2.174-.674-.317-.335-1.56-.528-1.948-.793-2.972-.656-4.514-1.702-8.453-1.43.008-.143-.147-.312.083-.422 2.141-.084 4.358.02 5.854.41.688.185 1.625.385 2.204.564.521.156 1.051.272 1.395.403 1.573.494 4.083 1.17 5.69 1.274.316.358.852.104 1.441.167 1.228.193 2.38.438 3.186.464 2.853.991 3.401 2.315 2.338 2.385-.485-.155-.966-.3-1.189-.184.791.363 1.316.458 2.133.861.575-.048 1.25.051 2.058.3.373-.552 1.404-.11 1.814-.618.37.21.391.362.68.437.873 1.777-1.083 2.511-3.35 1.561l-.248-.312c-.209.251-.726 0-1.5-.38M278.687 86.849s68.955.625 135.492.937c8.282-.295 16.67.918 24.638-1.02 7.902-2 14.766-6.952 19.14-13.226 9.191-12.537 8.053-29.355.295-38.196-7.583-9.256-18.09-10.563-23.439-9.724-5.581 1.067-7.22 2.715-4.988 1.97 2.165-.537 7.882-2.051 15.393.677 7.281 2.429 15.95 10.417 17.002 22.28 1.187 11.62-5.274 25.85-18.107 31.989-6.311 3.405-13.481 3.4-21.3 3.276l-23.14.1c-61.702.312-120.986.937-120.986.937" fill-rule="evenodd"/><path d="M278.824 86.825l7.836 2.19.907-1.529 5.742-.698-5.757-.669-.94-1.524z" fill-rule="evenodd"/><path d="M278.824 86.825l7.836 2.19.907-1.529 5.742-.698-5.757-.669-.94-1.524z" stroke="#3f0e73" stroke-width=".25"/></g><g clip-path="url(#b)" transform="matrix(2.59918 0 0 -2.59918 -55.633 231.747)"><path d="M30.101 49.231V31.81c0-.724.596-1.268 1.79-1.629 1.002-.313 1.502-.756 1.502-1.334 0-1.199-.042-1.866-.125-1.996-.084-.134-.435-.197-1.053-.197h-9.489c-.476 0-.773.126-.892.382-.119.254-.179.883-.179 1.885 0 .462.317.784.954.964 1.225.377 1.838.806 1.838 1.283v29.17c0 .706-.096 1.236-.284 1.592-.188.354-.613.646-1.273.876-.59.196-.985.411-1.185.642-.199.23-.3.667-.3 1.306 0 1.152.44 1.728 1.318 1.728h9.9L44.665 47.22v14.2c0 .792-.586 1.351-1.755 1.681-.69.213-1.138.456-1.34.728-.204.272-.305.803-.305 1.592 0 .495.071.794.215.9.142.107.417.161.823.161h9.877c.548-.049.823-.592.823-1.63 0-.607-.054-.994-.162-1.158-.106-.164-.35-.305-.733-.42-.834-.23-1.36-.452-1.574-.668-.215-.213-.322-.51-.322-.886V26.653H44.13zm43.803-1.876c-2.697-.82-4.308-1.744-4.832-2.77-.524-1.028-.788-3.34-.788-6.937 0-2.645.215-4.315.645-5.013.429-.7 1.169-1.048 2.219-1.048 1.837 0 2.756 1.052 2.756 3.153zm0 3.21v4.762c0 1.318-.777 1.976-2.326 1.976-2.125 0-3.186-.997-3.186-2.988 0-1.117-.185-1.915-.554-2.392-.372-.48-1.205-.886-2.505-1.223-1.301-.338-2.69-.505-4.17-.505-3.03 0-4.544 1.118-4.544 3.355 0 2.105 1.318 3.825 3.954 5.157 2.636 1.334 6.077 2 10.324 2 2.79 0 5.302-.265 7.533-.79 2.23-.526 4.013-1.413 5.347-2.664 1.334-1.248 2.003-2.622 2.008-4.116V30.623c.047-.116.405-.362 1.073-.739.477-.246.716-.609.716-1.086 0-.659-.131-1.123-.394-1.394-.262-.272-.9-.524-1.914-.75-1.015-.232-2.285-.347-3.813-.347-1.86 0-3.411.234-4.65.702-1.242.47-2.21 1.386-2.9 2.753-2.075-1.48-3.757-2.428-5.045-2.84a13.058 13.058 0 0 0-3.973-.615c-3.025 0-5.368.818-7.03 2.453-1.66 1.635-2.49 4.31-2.49 8.023.003 3.716.779 6.292 2.328 7.73 1.549 1.438 4.579 2.765 9.087 3.98 2.865.756 5.238 1.446 7.124 2.072m18.394 6.415h-1.396c-.406 0-.662.034-.77.1-.107.065-.16.247-.16.545v1.774c0 .328.053.543.16.642.108.1.423.17.95.223 1.717.178 3.446.837 5.187 1.973 1.742 1.136 2.78 2.353 3.114 3.652.12.463.269.744.448.852.178.107.542.161 1.09.161h2.328c.619 0 .93-.29.93-.862v-5.68h2.219c.834 0 1.252-.271 1.252-.811v-1.78c0-.524-.418-.788-1.252-.788h-2.22V31.417c0-.875.56-1.498 1.683-1.877.548-.182.906-.403 1.074-.666.166-.265.249-.742.249-1.431 0-.428-.042-.666-.125-.718-.083-.05-.376-.071-.877-.071H94.874c-1.717 1.05-2.576 2.639-2.576 4.763zm19.862-.394c-.312.1-.55.174-.717.222-.596.179-.972.359-1.127.532-.155.17-.233.53-.233 1.073 0 .294-.013.54-.036.74 0 .493.102.818.305.975.203.156.65.232 1.341.232h11.13c.55 0 .882-.055 1.003-.171.12-.115.18-.394.18-.837v-24.31c0-2.122.845-3.183 2.54-3.183 1.287 0 2.265.379 2.934 1.135V55.82c0 .593-.418 1.052-1.252 1.382-.406.164-.65.34-.735.53-.083.19-.126.827-.126 1.913 0 .476.406.714 1.218.714h11.702c.501 0 .806-.047.914-.148.106-.097.161-.361.161-.79V31.146c0-.545.321-.923.964-1.136.79-.298 1.183-.79 1.183-1.482 0-.987-.054-1.546-.16-1.676-.109-.134-.484-.198-1.129-.198h-10.879c-.692 0-1.17.084-1.432.259-.262.172-.393.546-.393 1.123v.614c0 .66-.013 1.032-.036 1.114-3.793-2.305-7.003-3.455-9.628-3.455-2.254 0-4.099.517-5.537 1.552-1.438 1.038-2.156 3.036-2.156 5.998zm46.81-2.789c.284.395.63 1.087 1.037 2.074.904 2.137 1.794 3.48 2.666 4.02a5.327 5.327 0 0 0 2.88.816c1.432 0 2.51-.47 3.24-1.407.726-.938 1.09-2.114 1.09-3.53 0-3.041-1.24-4.565-3.722-4.565-1.24 0-2.194.502-2.863 1.508-.405.574-.822.863-1.252.863-1.074 0-1.61-.814-1.61-2.445V31.416c0-.626.417-1.088 1.252-1.382.835-.282 1.253-.733 1.253-1.36v-1.108c0-.395-.068-.646-.198-.753-.13-.11-.507-.16-1.127-.16h-13.49c-.93 0-1.396.302-1.396.913v1.355c0 .462.203.768.607.913.812.279 1.218.707 1.218 1.285V55.97c0 .557-.287.96-.859 1.207-.622.248-.979.44-1.074.579-.095.14-.143.564-.143 1.27 0 .593.125.965.375 1.114.25.146.675.219 1.272.219h9.661c.453 0 .765-.084.93-.258.167-.172.252-.586.252-1.245zm31.74-6.442c-2.696-.82-4.306-1.744-4.83-2.77-.525-1.028-.788-3.34-.788-6.937 0-2.645.216-4.315.643-5.013.431-.7 1.168-1.048 2.22-1.048 1.836 0 2.755 1.052 2.755 3.153zm0 3.21v4.762c0 1.318-.774 1.976-2.325 1.976-2.124 0-3.186-.997-3.186-2.988 0-1.117-.184-1.915-.554-2.392-.37-.48-1.206-.886-2.505-1.223-1.302-.338-2.69-.505-4.169-.505-3.03 0-4.545 1.118-4.545 3.355 0 2.105 1.317 3.825 3.953 5.157 2.637 1.334 6.08 2 10.326 2 2.791 0 5.301-.265 7.532-.79 2.231-.526 4.013-1.413 5.347-2.664 1.333-1.248 2.003-2.622 2.008-4.116V30.623c.047-.116.405-.362 1.074-.739.476-.246.715-.609.715-1.086 0-.659-.132-1.123-.394-1.394-.262-.272-.9-.524-1.915-.75-1.014-.232-2.284-.347-3.81-.347-1.86 0-3.413.234-4.653.702-1.242.47-2.207 1.386-2.899 2.753-2.075-1.48-3.757-2.428-5.046-2.84a13.047 13.047 0 0 0-3.972-.615c-3.025 0-5.368.818-7.028 2.453-1.66 1.635-2.49 4.31-2.49 8.023.002 3.716.776 6.292 2.326 7.73 1.551 1.438 4.58 2.765 9.09 3.98 2.862.756 5.235 1.446 7.12 2.072m35.93 2.715c0 1.02-.298 1.78-.895 2.282-.596.5-1.252.751-1.968.751-.525 0-1.098-.212-1.717-.64-.62-.428-.93-.913-.93-1.456V33.49c0-.446.333-.915 1.002-1.408.666-.494 1.444-.74 2.324-.74 1.456 0 2.184.782 2.184 2.342zm-5.51 4.663c1.406.921 2.696 1.613 3.864 2.074 1.168.46 2.552.69 4.151.69 3.668 0 6.356-1.313 8.066-3.935 1.708-2.625 2.562-6.825 2.562-12.6 0-3.749-.276-6.836-.826-9.253-.552-2.419-1.78-4.4-3.687-5.946-1.905-1.548-4.098-2.32-6.579-2.32-2.984 0-5.5 1.133-7.552 3.403v-5.503c0-.558.451-.945 1.361-1.16.881-.213 1.324-.616 1.324-1.208v-.889c0-.343-.06-.553-.18-.628-.12-.075-.44-.113-.966-.113h-13.777c-.955 0-1.432.167-1.432.495v.913c0 .61.406 1.08 1.216 1.407.405.164.61.428.61.79v31.932c0 .61-.31 1.07-.932 1.382-.429.213-.686.377-.769.493-.084.116-.125.354-.125.717v.764c0 .443.064.707.197.79.13.082.483.122 1.055.122h10.915c.691 0 1.115-.056 1.271-.172.154-.114.232-.412.232-.888zm34.783-4.146c.287.395.634 1.087 1.04 2.074.904 2.137 1.793 3.48 2.665 4.02a5.335 5.335 0 0 0 2.88.816c1.432 0 2.514-.47 3.239-1.407.73-.938 1.094-2.114 1.094-3.53 0-3.041-1.241-4.565-3.724-4.565-1.242 0-2.196.502-2.863 1.508-.404.574-.823.863-1.253.863-1.072 0-1.61-.814-1.61-2.445V31.416c0-.626.419-1.088 1.252-1.382.835-.282 1.253-.733 1.253-1.36v-1.108c0-.395-.065-.646-.197-.753-.132-.11-.505-.16-1.126-.16H245.07c-.93 0-1.395.302-1.395.913v1.355c0 .462.203.768.608.913.81.279 1.218.707 1.218 1.285V55.97c0 .557-.287.96-.86 1.207-.62.248-.98.44-1.073.579-.094.14-.143.564-.143 1.27 0 .593.125.965.377 1.114.249.146.673.219 1.268.219h9.664c.454 0 .764-.084.932-.258.167-.172.247-.586.247-1.245zm31.743-6.442c-2.696-.82-4.306-1.744-4.83-2.77-.526-1.028-.786-3.34-.786-6.937 0-2.645.213-4.315.642-5.013.43-.7 1.169-1.048 2.22-1.048 1.835 0 2.754 1.052 2.754 3.153zm0 3.21v4.762c0 1.318-.774 1.976-2.327 1.976-2.122 0-3.185-.997-3.185-2.988 0-1.117-.183-1.915-.554-2.392-.371-.48-1.204-.886-2.503-1.223-1.3-.338-2.694-.505-4.171-.505-3.03 0-4.542 1.118-4.542 3.355 0 2.105 1.314 3.825 3.953 5.157 2.634 1.334 6.078 2 10.323 2 2.793 0 5.303-.265 7.534-.79 2.232-.526 4.01-1.413 5.347-2.664 1.334-1.248 2.002-2.622 2.006-4.116V30.623c.05-.116.407-.362 1.073-.739.478-.246.718-.609.718-1.086 0-.659-.132-1.123-.396-1.394-.262-.272-.9-.524-1.912-.75-1.016-.232-2.286-.347-3.814-.347-1.86 0-3.41.234-4.651.702-1.242.47-2.208 1.386-2.9 2.753-2.074-1.48-3.758-2.428-5.046-2.84a13.039 13.039 0 0 0-3.973-.615c-3.022 0-5.365.818-7.025 2.453-1.661 1.635-2.492 4.31-2.492 8.023 0 3.716.777 6.292 2.328 7.73 1.548 1.438 4.579 2.765 9.087 3.98 2.862.756 5.237 1.446 7.122 2.072m33.034.449l2.248 3.126c.024.032.147.183.372.45.946 1.132 1.42 1.903 1.42 2.319 0 .228-.284.45-.858.664-.31.115-.513.256-.608.42-.097.164-.143.625-.143 1.38 0 .478.06.762.176.853.12.092.49.135 1.11.135h6.979c.358-.031.576-.118.645-.26.073-.14.109-.522.109-1.148 0-.707-.03-1.116-.09-1.232-.06-.115-.317-.238-.776-.368a2.674 2.674 0 0 1-1.366-1.034l-6.967-9.924 7.552-15.5c.166-.327.574-.69 1.218-1.084.5-.297.75-.651.75-1.061v-1.284c0-.38-.065-.607-.198-.69-.131-.084-.507-.122-1.128-.122h-12.846c-.62 0-1.03.068-1.233.208-.205.14-.307.506-.307 1.098 0 .659.066 1.093.198 1.308.133.213.464.413.989.592.43.133.645.33.645.592 0 .182-.06.387-.178.62l-2.542 5.234-2.521-3.236c-1.06-1.352-1.592-2.226-1.592-2.62 0-.344.295-.582.893-.712.52-.15.779-.437.779-.865l.039-.79c0-.724-.054-1.142-.163-1.257-.104-.117-.434-.172-.981-.172h-6.943c-.455 0-.735.038-.843.123-.105.082-.158.31-.158.689v1.508c.046.246.298.466.748.665.838.329 1.43.746 1.79 1.257l6.775 9.89-7.327 15.09c-.261.556-.71.992-1.352 1.302-.38.197-.638.372-.783.52-.138.146-.214.763-.214 1.85 0 .362.076.587.218.678.14.092.462.135.962.135h13.176c.595 0 .95-.04 1.07-.122.12-.083.178-.355.178-.816v-.913c0-.442-.213-.773-.644-.986-.568-.28-.855-.633-.855-1.062 0-.096.023-.197.069-.297zm24.94 16.357c2.696 0 4.042-.626 4.042-1.877 0-.986-.899-1.82-2.702-2.506-1.799-.68-3.847-1.022-6.136-1.022-2.96 0-4.439.681-4.439 2.048 0 1.086 1.041 1.917 3.117 2.493 2.073.575 4.116.864 6.118.864m-10.02-9.453v1.631c0 .54.475.811 1.431.811h11.416c.81 0 1.215-.27 1.215-.81V31.166c0-.395.036-.649.107-.764.072-.115.28-.222.634-.32.84-.232 1.263-.74 1.263-1.53 0-.906-.056-1.449-.177-1.63-.12-.18-.5-.27-1.145-.27H336.5c-.33.03-.545.136-.64.308-.095.172-.143.628-.143 1.368 0 .891.31 1.408.933 1.556.763.182 1.143.51 1.143.987v24.603c0 .955-.513 1.531-1.54 1.728-.426.082-.643.32-.643.715m37.863 1.878l1.966-6.836c.05-.216.072-.402.072-.567 0-.461-.645-.692-1.933-.692-.858 0-1.487.074-1.878.223-.395.146-.84.542-1.343 1.184-.574.756-1.444 1.654-2.61 2.689-1.17 1.036-2.219 1.557-3.15 1.557-.355 0-.677-.117-.95-.347-.273-.232-.41-.503-.41-.813 0-.84 1.74-3.213 5.222-7.127 3.007-3.403 5.05-6.073 6.118-8.013 1.078-1.941 1.616-4.127 1.616-6.56 0-2.58-.815-4.591-2.438-6.03-1.62-1.438-3.53-2.155-5.726-2.155-1.38 0-2.834.345-4.363 1.035-.835.38-1.396.568-1.68.568-.339 0-.529-.188-.575-.568-.097-.444-.24-.728-.43-.852-.19-.122-.81-.183-1.859-.183-.815 0-1.337.082-1.574.246-.24.163-.407.454-.502.863l-1.79 6.885c-.07.33-.107.536-.107.617 0 .459.801.689 2.4.689.833 0 1.41-.071 1.732-.22.324-.148.733-.576 1.233-1.283 1.863-2.681 3.63-4.023 5.301-4.023 1.071 0 1.61.444 1.61 1.33 0 .79-.4 1.77-1.2 2.936-.797 1.167-2.358 3.08-4.67 5.744-2.433 2.829-4.194 5.195-5.28 7.102-1.087 1.908-1.625 3.823-1.625 5.747 0 2.61.81 4.559 2.431 5.844 1.623 1.28 3.59 1.922 5.907 1.922 1.213 0 2.598-.287 4.15-.864.786-.294 1.321-.444 1.608-.444.383 0 .611.172.68.518.097.362.287.585.573.667.288.082.893.123 1.827.123.596 0 .983-.047 1.163-.136.177-.09.34-.348.484-.776"/></g></g></svg>